<?xml version="1.0" encoding="UTF-8"?>
<svg id="Layer_2" data-name="Layer 2" xmlns="http://www.w3.org/2000/svg" xmlns:xlink="http://www.w3.org/1999/xlink" viewBox="0 0 101.97 31.52">
  <defs>
    <style>
      .cls-1 {
        fill: url(#New_Gradient_Swatch);
        stroke: #fff;
        stroke-miterlimit: 10;
        stroke-width: .75px;
      }

      .cls-2 {
        fill: #fff;
        stroke-width: 0px;
      }
    </style>
    <linearGradient id="New_Gradient_Swatch" data-name="New Gradient Swatch" x1="50.98" y1="31.15" x2="50.98" y2=".38" gradientUnits="userSpaceOnUse">
      <stop offset="0" stop-color="#e3efcf"/>
      <stop offset=".28" stop-color="#93c83f"/>
      <stop offset=".39" stop-color="#95c942"/>
      <stop offset=".49" stop-color="#9ccc4f"/>
      <stop offset=".59" stop-color="#a7d263"/>
      <stop offset=".7" stop-color="#b7da7f"/>
      <stop offset=".8" stop-color="#cbe4a3"/>
      <stop offset=".9" stop-color="#e4f1cf"/>
      <stop offset=".99" stop-color="#fff"/>
    </linearGradient>
  </defs>
  <g id="Layer_1-2" data-name="Layer 1">
    <rect class="cls-1" x=".37" y=".38" width="101.22" height="30.77" rx="15.39" ry="15.39"/>
    <g>
      <path class="cls-2" d="M38.01,22.11h-5.35v-11.81h5.74c1.45.02,2.47.44,3.08,1.26.36.5.54,1.1.54,1.8s-.18,1.3-.54,1.74c-.2.25-.5.47-.9.67.6.22,1.06.57,1.37,1.04s.46,1.05.46,1.73-.18,1.33-.53,1.88c-.22.37-.5.68-.84.93-.38.29-.83.49-1.34.59s-1.08.16-1.68.16ZM39.18,14.65c.32-.19.48-.54.48-1.03,0-.55-.21-.91-.64-1.09-.37-.12-.84-.18-1.41-.18h-2.6v2.6h2.9c.52,0,.94-.1,1.27-.3ZM37.95,16.9h-2.94v3.15h2.9c.52,0,.92-.07,1.21-.21.52-.26.79-.75.79-1.47,0-.61-.25-1.04-.76-1.27-.28-.13-.68-.19-1.19-.2Z"/>
      <path class="cls-2" d="M44.61,14.31c.6-.77,1.64-1.15,3.11-1.15.96,0,1.81.19,2.55.57s1.11,1.1,1.11,2.15v4.01c0,.28,0,.61.02,1.01.02.3.06.5.14.61.07.11.19.19.34.26v.34h-2.48c-.07-.18-.12-.34-.14-.5-.03-.15-.05-.33-.06-.53-.32.34-.68.63-1.09.87-.49.28-1.05.42-1.67.42-.79,0-1.44-.23-1.96-.68s-.77-1.09-.77-1.92c0-1.07.41-1.85,1.24-2.33.45-.26,1.12-.45,2-.56l.78-.1c.42-.05.72-.12.91-.2.33-.14.49-.36.49-.65,0-.36-.12-.6-.37-.74-.25-.14-.61-.2-1.09-.2-.54,0-.92.13-1.15.4-.16.2-.27.46-.32.8h-2.2c.05-.76.26-1.39.64-1.88ZM46.31,20.45c.21.18.48.26.79.26.49,0,.94-.14,1.36-.43s.63-.81.65-1.58v-.85c-.14.09-.29.16-.44.22-.15.06-.35.11-.6.16l-.51.1c-.48.09-.83.19-1.03.31-.35.21-.53.53-.53.97,0,.39.11.67.33.84Z"/>
      <path class="cls-2" d="M60.97,16.5h-2.34c-.04-.33-.15-.62-.33-.88-.26-.35-.65-.53-1.19-.53-.77,0-1.3.38-1.58,1.15-.15.41-.22.95-.22,1.62s.07,1.16.22,1.55c.27.73.79,1.09,1.54,1.09.53,0,.91-.14,1.14-.43.22-.29.36-.66.41-1.12h2.33c-.05.69-.3,1.35-.75,1.97-.72,1-1.78,1.5-3.18,1.5s-2.44-.42-3.1-1.25-.99-1.92-.99-3.25c0-1.5.37-2.67,1.1-3.5s1.74-1.25,3.03-1.25c1.1,0,1.99.25,2.69.74.7.49,1.11,1.36,1.24,2.6Z"/>
      <path class="cls-2" d="M70.56,22.11h-2.76l-2.09-3.73-.95.99v2.75h-2.24v-11.77h2.24v6.36l2.85-3.29h2.83l-3.05,3.34,3.17,5.35Z"/>
    </g>
  </g>
</svg>