<?xml version="1.0" encoding="UTF-8"?>
<svg id="Layer_2" data-name="Layer 2" xmlns="http://www.w3.org/2000/svg" viewBox="0 0 51.85 57.61">
  <defs>
    <style>
      .cls-1 {
        fill: #4d57a4;
        stroke-width: 0px;
      }
    </style>
  </defs>
  <g id="Layer_1-2" data-name="Layer 1">
    <path class="cls-1" d="M8.64,57.61c-2.4,0-4.44-.84-6.12-2.52-1.68-1.68-2.52-3.72-2.52-6.12v-8.64h8.64V0h43.21v48.97c0,2.4-.84,4.44-2.52,6.12-1.68,1.68-3.72,2.52-6.12,2.52H8.64ZM43.21,51.85c.82,0,1.5-.28,2.05-.83s.83-1.24.83-2.05V5.76H14.4v34.56h25.92v8.64c0,.82.28,1.5.83,2.05s1.24.83,2.05.83ZM17.28,20.16v-5.76h25.92v5.76h-25.92ZM17.28,28.8v-5.76h25.92v5.76h-25.92ZM8.64,51.85h25.92v-5.76H5.76v2.88c0,.82.28,1.5.83,2.05s1.24.83,2.05.83ZM8.64,51.85h-2.88,28.8H8.64Z"/>
  </g>
</svg>