<?xml version="1.0" encoding="UTF-8"?>
<svg id="Layer_2" xmlns="http://www.w3.org/2000/svg" viewBox="0 0 50.12 81.01">
  <defs>
    <style>
      .cls-1 {
        fill: #fff;
      }

      .cls-2 {
        fill: #93c83f;
      }
    </style>
  </defs>
  <g id="Layer_1-2" data-name="Layer_1">
    <path class="cls-2" d="M47.74,18.76c6.74,16.98-1.04,42.28-20.77,61.46-1.09,1.06-2.71,1.06-3.8,0C3.41,61.06-4.36,35.73,2.39,18.76,5.7,10.43,14.17-.03,25.13,0c10.93.03,19.32,10.47,22.61,18.76Z"/>
    <path class="cls-1" d="M25.04,11.72c4.93,0,8.91,4,8.91,8.91s-4,8.91-8.91,8.91-8.91-4-8.91-8.91,4-8.91,8.91-8.91ZM41.85,47.47c0-9.27-7.52-16.79-16.79-16.79s-16.79,7.52-16.79,16.79h33.58Z"/>
  </g>
</svg>