<?xml version="1.0" encoding="UTF-8"?>
<svg id="Layer_2" data-name="Layer 2" xmlns="http://www.w3.org/2000/svg" viewBox="0 0 27.98 27.99">
  <defs>
    <style>
      .cls-1 {
        fill: #93c740;
        stroke-width: 0px;
      }
    </style>
  </defs>
  <g id="Layer_1-2" data-name="Layer 1">
    <g>
      <path class="cls-1" d="M13.99,8.23c-3.18,0-5.76,2.59-5.76,5.77s2.59,5.76,5.76,5.76,5.77-2.59,5.77-5.76-2.59-5.77-5.77-5.77ZM13.99,17.67c-2.02,0-3.67-1.65-3.67-3.67s1.65-3.67,3.67-3.67,3.67,1.65,3.67,3.67-1.65,3.67-3.67,3.67Z"/>
      <path class="cls-1" d="M26.94,12.96h-2.36c-.5-5.05-4.49-9.04-9.54-9.54V1.05c0-.58-.47-1.05-1.05-1.05s-1.05.47-1.05,1.05v2.37C7.89,3.92,3.91,7.91,3.41,12.96H1.05c-.58,0-1.05.47-1.05,1.05s.47,1.05,1.05,1.05h2.36c.5,5.04,4.48,9.03,9.53,9.53v2.36c0,.58.47,1.05,1.05,1.05s1.05-.47,1.05-1.05v-2.36c5.05-.5,9.04-4.48,9.54-9.53h2.36c.58,0,1.05-.47,1.05-1.05s-.47-1.05-1.05-1.05ZM14.01,22.59s-.02,0-.03,0c0,0-.01,0-.02,0-4.72-.02-8.56-3.86-8.56-8.58,0,0,0,0,0,0,0,0,0,0,0,0,0-4.74,3.86-8.59,8.59-8.59s8.59,3.85,8.59,8.59c0,0,0,0,0,0,0,0,0,0,0,0,0,4.73-3.85,8.57-8.58,8.58Z"/>
    </g>
  </g>
</svg>