<?xml version="1.0" encoding="UTF-8"?>
<svg id="Layer_2" data-name="Layer 2" xmlns="http://www.w3.org/2000/svg" viewBox="0 0 35.57 40.02">
  <defs>
    <style>
      .cls-1 {
        fill: #fff;
      }
    </style>
  </defs>
  <g id="Layer_1-2" data-name="Layer 1">
    <g>
      <path class="cls-1" d="M35.24,2.22h-10.44c-.19,0-.34-.15-.34-.34V.34c0-.19-.15-.34-.34-.34h-12.66c-.19,0-.34.15-.34.34v1.54c0,.19-.15.34-.34.34H.34c-.19,0-.34.15-.34.34v3.77c0,.19.15.34.34.34h1.54c.19,0,.34.15.34.34v28.26c0,1.35.47,2.7,1.47,3.61.84.77,1.83,1.15,2.98,1.15h22.23c1.15,0,2.14-.38,2.98-1.15.99-.91,1.47-2.26,1.47-3.61V7.01c0-.19.15-.34.34-.34h1.54c.19,0,.34-.15.34-.34v-3.77c0-.19-.15-.34-.34-.34ZM28.9,35.24c0,.19-.15.34-.34.34H7.01c-.19,0-.34-.15-.34-.34V7.01c0-.19.15-.34.34-.34h21.56c.19,0,.34.15.34.34v28.23Z"/>
      <rect class="cls-1" x="11.12" y="11.12" width="4.45" height="20.01" rx="2.22" ry="2.22"/>
      <rect class="cls-1" x="20.01" y="11.12" width="4.45" height="20.01" rx="2.22" ry="2.22"/>
    </g>
  </g>
</svg>