<?xml version="1.0" encoding="UTF-8"?>
<svg id="Layer_2" xmlns="http://www.w3.org/2000/svg" viewBox="0 0 49.49 49.49">
  <defs>
    <style>
      .cls-1 {
        fill: #bcbec0;
      }

      .cls-2 {
        fill: #939598;
      }
    </style>
  </defs>
  <g id="Layer_1-2" data-name="Layer_1">
    <g>
      <circle class="cls-1" cx="24.75" cy="24.75" r="24.75"/>
      <g>
        <path class="cls-2" d="M21,30.28c-2.1,0-4.2,0-6.29,0-1.25-.01-2.34-.83-2.69-2-.38-1.28.21-2.7,1.42-3.35-.07-.07-.97-1.02-.69-2.34.3-1.4,1.66-1.87,1.72-1.89-.12-.25-.42-.93-.25-1.77.27-1.42,1.6-2.02,1.73-2.08-.43-.8-.34-1.74.2-2.35.55-.61,1.33-.62,1.47-.62,4.41-.13,7.72-.07,9.02.02.26.02,1.08.14,1.99.57.94.44,1.41,1.18,1.39,2.33-.06,3.75-.03,7.51-.01,11.27,0,.61-.18.98-.7,1.38-1.84,1.43-3.14,3.22-3.2,5.72-.02.86-.06,1.72-.19,2.56-.09.61-.31,1.15-.74,1.52-.09.08-.4.34-.82.41-1.01.18-1.91-.8-2.11-1.02-.25-.27-1-1.16-1.24-4.73-.06-.89-.1-2.14-.01-3.64Z"/>
        <rect class="cls-2" x="31.38" y="13.81" width="6.21" height="16.81" rx="1.47" ry="1.47" transform="translate(68.97 44.44) rotate(180)"/>
      </g>
    </g>
  </g>
</svg>