<?xml version="1.0" encoding="UTF-8"?>
<svg id="Layer_2" xmlns="http://www.w3.org/2000/svg" viewBox="0 0 22.26 22.27">
  <defs>
    <style>
      .cls-1 {
        fill: #93c83f;
      }
    </style>
  </defs>
  <g id="Layer_1-2" data-name="Layer_1">
    <g id="Layer_1-2">
      <path class="cls-1" d="M22.09,3.28c-.11-.31-.29-.58-.54-.8l-1.7-1.73c-.23-.25-.49-.43-.8-.56-.31-.12-.63-.19-.96-.19s-.64.06-.95.19c-.3.12-.57.3-.82.53L.26,16.75c-.16.16-.26.39-.26.62v4.02c0,.49.39.88.88.88h4.02c.23,0,.45-.09.62-.26L21.55,5.97c.25-.25.43-.52.54-.82s.17-.62.17-.95c0-.31-.06-.62-.17-.93h0ZM15.71,8.32l-11.21,11.21c-.16.16-.39.26-.62.26h-.52c-.49,0-.88-.39-.88-.88v-.52c0-.23.09-.45.26-.62L13.94,6.56c.31-.31.8-.33,1.14-.08l.35.36.36.35c.25.34.23.83-.08,1.14h0Z"/>
    </g>
  </g>
</svg>