<?xml version="1.0" encoding="UTF-8"?>
<svg id="Layer_2" data-name="Layer 2" xmlns="http://www.w3.org/2000/svg" viewBox="0 0 43.76 43.76">
  <defs>
    <style>
      .cls-1 {
        fill: #fff;
      }
    </style>
  </defs>
  <g id="Layer_1-2" data-name="Layer 1">
    <g id="Layer_1-2" data-name="Layer 1-2">
      <path class="cls-1" d="M43.42,6.44c-.22-.6-.58-1.13-1.06-1.58l-3.34-3.4c-.45-.48-.97-.85-1.58-1.1-.6-.25-1.24-.37-1.88-.37s-1.26.12-1.86.37c-.59.25-1.12.59-1.61,1.03L.51,32.92c-.32.32-.51.76-.51,1.22v7.9c0,.96.77,1.73,1.73,1.73h7.9c.46,0,.89-.18,1.22-.51l31.52-31.53c.48-.48.84-1.03,1.06-1.61s.33-1.21.33-1.86c0-.6-.11-1.22-.33-1.82h0ZM30.87,16.35l-22.04,22.04c-.32.32-.76.51-1.22.51h-1.03c-.96,0-1.73-.77-1.73-1.73v-1.03c0-.46.18-.89.51-1.22L27.4,12.89c.61-.61,1.57-.66,2.23-.17l.68.71.71.68c.5.67.45,1.63-.17,2.23h0Z"/>
    </g>
  </g>
</svg>