<?xml version="1.0" encoding="UTF-8"?>
<svg id="Layer_2" xmlns="http://www.w3.org/2000/svg" viewBox="0 0 125 125">
  <defs>
    <style>
      .cls-1 {
        fill: #2ab999;
      }
    </style>
  </defs>
  <g id="Layer_1-2" data-name="Layer_1">
    <path class="cls-1" d="M62.5,0C28.04,0,0,28.04,0,62.5s28.04,62.5,62.5,62.5,62.5-28.04,62.5-62.5S96.96,0,62.5,0ZM33.27,44.99c-2.16-1.23-2.91-3.98-1.67-6.14,1.23-2.16,3.98-2.9,6.14-1.67l14,8c1.42.81,2.29,2.33,2.27,3.97-.02,1.64-.94,3.13-2.38,3.91l-15,8c-.67.36-1.4.53-2.11.53-1.61,0-3.17-.87-3.97-2.38-1.17-2.19-.34-4.92,1.85-6.09l7.81-4.17-6.93-3.96ZM61.63,96.65c-11.7-.26-22.16-7.03-26.03-16.84-.91-2.31.22-4.93,2.53-5.84,2.31-.91,4.93.22,5.84,2.53,2.56,6.49,9.74,10.96,17.86,11.15,8.48.18,16.24-4.4,18.91-11.15.92-2.31,3.53-3.44,5.84-2.53,2.31.92,3.44,3.53,2.53,5.84-4.02,10.14-14.71,16.84-26.75,16.84-.24,0-.49,0-.73,0ZM94.47,59.2c-.81,1.52-2.37,2.38-3.97,2.38-.71,0-1.44-.17-2.11-.53l-15-8c-1.45-.77-2.36-2.27-2.38-3.91-.02-1.64.84-3.16,2.27-3.97l14-8c2.16-1.23,4.91-.48,6.14,1.67,1.23,2.16.48,4.91-1.67,6.14l-6.92,3.96,7.81,4.17c2.19,1.17,3.02,3.89,1.85,6.09Z"/>
  </g>
</svg>