<?xml version="1.0" encoding="UTF-8"?>
<svg id="Layer_2" data-name="Layer 2" xmlns="http://www.w3.org/2000/svg" viewBox="0 0 125 125">
  <defs>
    <style>
      .cls-1 {
        fill: #939598;
        stroke-width: 0px;
      }
    </style>
  </defs>
  <g id="Layer_1-2" data-name="Layer 1">
    <path class="cls-1" d="M62.5,0C28.04,0,0,28.04,0,62.5s28.04,62.5,62.5,62.5,62.5-28.04,62.5-62.5S96.96,0,62.5,0ZM29.64,42.58h17.5c3.31,0,6,2.69,6,6s-2.69,6-6,6h-17.5c-3.31,0-6-2.69-6-6s2.69-6,6-6ZM44.11,93.82c-.92,2.31-3.53,3.44-5.84,2.53-2.31-.92-3.44-3.53-2.53-5.84,4.1-10.35,15.13-17.06,27.48-16.84,11.7.26,22.16,7.03,26.03,16.84.91,2.31-.22,4.93-2.53,5.84-.54.21-1.1.32-1.65.32-1.79,0-3.49-1.08-4.19-2.85-2.56-6.49-9.74-10.96-17.86-11.15-.17,0-.34,0-.51,0-8.26,0-15.79,4.54-18.41,11.16ZM94.14,54.58h-17.5c-3.31,0-6-2.69-6-6s2.69-6,6-6h17.5c3.31,0,6,2.69,6,6s-2.69,6-6,6Z"/>
  </g>
</svg>