<?xml version="1.0" encoding="UTF-8"?>
<svg id="Layer_2" data-name="Layer 2" xmlns="http://www.w3.org/2000/svg" viewBox="0 0 125 125">
  <defs>
    <style>
      .cls-1 {
        fill: #939598;
        stroke-width: 0px;
      }
    </style>
  </defs>
  <g id="Layer_1-2" data-name="Layer 1">
    <path class="cls-1" d="M62.5,0C28.04,0,0,28.04,0,62.5s28.04,62.5,62.5,62.5,62.5-28.04,62.5-62.5S96.96,0,62.5,0ZM41.82,38.84c5.15,0,9.32,4.17,9.32,9.32s-4.17,9.32-9.32,9.32-9.32-4.17-9.32-9.32,4.17-9.32,9.32-9.32ZM43.64,80.16c0-2.49,2.01-4.5,4.5-4.5h27.93c2.49,0,4.5,2.01,4.5,4.5s-2.01,4.5-4.5,4.5h-27.93c-2.49,0-4.5-2.01-4.5-4.5ZM83.18,57.48c-5.15,0-9.32-4.17-9.32-9.32s4.17-9.32,9.32-9.32,9.32,4.17,9.32,9.32-4.17,9.32-9.32,9.32Z"/>
  </g>
</svg>