<?xml version="1.0" encoding="UTF-8"?>
<svg id="Layer_2" data-name="Layer 2" xmlns="http://www.w3.org/2000/svg" viewBox="0 0 125 125">
  <defs>
    <style>
      .cls-1 {
        fill: #939598;
        stroke-width: 0px;
      }
    </style>
  </defs>
  <g id="Layer_1-2" data-name="Layer 1">
    <path class="cls-1" d="M62.5,0C28.04,0,0,28.04,0,62.5s28.04,62.5,62.5,62.5,62.5-28.04,62.5-62.5S96.96,0,62.5,0ZM41.82,38.84c5.15,0,9.32,4.17,9.32,9.32s-4.17,9.32-9.32,9.32-9.32-4.17-9.32-9.32,4.17-9.32,9.32-9.32ZM35.74,79.81c-.91-2.31.22-4.93,2.53-5.84,2.31-.91,4.92.22,5.84,2.53,2.56,6.49,9.74,10.96,17.86,11.15,8.46.18,16.24-4.4,18.91-11.15.92-2.31,3.53-3.44,5.84-2.53,2.31.92,3.44,3.53,2.53,5.84-4.02,10.14-14.71,16.84-26.75,16.84-.24,0-.49,0-.73,0-11.7-.26-22.16-7.03-26.03-16.84ZM83.18,57.48c-5.15,0-9.32-4.17-9.32-9.32s4.17-9.32,9.32-9.32,9.32,4.17,9.32,9.32-4.17,9.32-9.32,9.32Z"/>
  </g>
</svg>