<?xml version="1.0" encoding="UTF-8"?>
<svg id="Layer_2" xmlns="http://www.w3.org/2000/svg" viewBox="0 0 125 125">
  <defs>
    <style>
      .cls-1 {
        fill: #faa627;
      }
    </style>
  </defs>
  <g id="Layer_1-2" data-name="Layer_1">
    <path class="cls-1" d="M62.5,0C28.04,0,0,28.04,0,62.5s28.04,62.5,62.5,62.5,62.5-28.04,62.5-62.5S96.96,0,62.5,0ZM41.82,38.84c5.15,0,9.32,4.17,9.32,9.32s-4.17,9.32-9.32,9.32-9.32-4.17-9.32-9.32,4.17-9.32,9.32-9.32ZM44.11,93.82c-.7,1.77-2.39,2.84-4.19,2.84-.55,0-1.11-.1-1.66-.32-2.31-.92-3.44-3.53-2.53-5.84,4.1-10.35,15.15-17.08,27.48-16.84,11.7.26,22.16,7.03,26.03,16.84.91,2.31-.22,4.93-2.53,5.84-2.31.91-4.92-.22-5.84-2.53-2.56-6.49-9.74-10.96-17.86-11.15-.17,0-.34,0-.51,0-8.26,0-15.79,4.54-18.41,11.16ZM83.18,57.48c-5.15,0-9.32-4.17-9.32-9.32s4.17-9.32,9.32-9.32,9.32,4.17,9.32,9.32-4.17,9.32-9.32,9.32Z"/>
  </g>
</svg>