<svg width="89" height="88" viewBox="0 0 89 88" fill="none" xmlns="http://www.w3.org/2000/svg">
<path d="M41.0961 0C53.1614 0 62.9338 9.79094 62.9338 21.8378C62.9338 33.8846 53.1429 43.6755 41.0961 43.6755C29.0492 43.6755 19.2583 33.8846 19.2583 21.8378C19.2583 9.79094 29.0492 0 41.0961 0Z" fill="#95C940"/>
<path d="M69.3409 79.5941C65.3006 79.5941 62.0093 76.3027 62.0093 72.2625V64.071H53.827C49.7868 64.071 46.4954 60.7796 46.4954 56.7393C46.4954 52.6991 49.7868 49.4077 53.827 49.4077H56.4712C51.7376 47.5031 46.5694 46.4492 41.1515 46.4492C18.4169 46.4492 0 64.8661 0 87.5822H82.2753C82.2753 80.0286 80.2321 72.9559 76.6726 66.8724V72.2625C76.6726 76.3027 73.3812 79.5941 69.3409 79.5941Z" fill="#95C940"/>
<path d="M84.8548 53.1059H72.9744V41.2255C72.9744 39.2192 71.3564 37.592 69.3409 37.592C67.3254 37.592 65.7075 39.21 65.7075 41.2255V53.1059H53.8271C51.8208 53.1059 50.1936 54.7238 50.1936 56.7393C50.1936 58.7549 51.8116 60.3728 53.8271 60.3728H65.7075V72.2532C65.7075 74.2595 67.3254 75.8867 69.3409 75.8867C71.3564 75.8867 72.9744 74.2687 72.9744 72.2532V60.3728H84.8548C86.8611 60.3728 88.4883 58.7549 88.4883 56.7393C88.4883 54.7238 86.8703 53.1059 84.8548 53.1059Z" fill="white"/>
</svg>
