<?xml version="1.0" encoding="UTF-8"?>
<svg id="Layer_2" data-name="Layer 2" xmlns="http://www.w3.org/2000/svg" viewBox="0 0 330.19 59.25">
  <defs>
    <style>
      .cls-1 {
        fill: #fff;
      }

      .cls-2 {
        fill: #93c83d;
      }
    </style>
  </defs>
  <g id="Layer_1-2" data-name="Layer 1">
    <g>
      <path class="cls-2" d="M218.21,20.68c2.05,0,3.68.75,4.9,2.26,1.22,1.51,1.83,3.71,1.83,6.59,0,3.07-.64,5.31-1.93,6.72s-2.86,2.11-4.72,2.11c-2.79,0-4.73-1.29-5.81-3.86-.6-1.38-.89-2.95-.89-4.72,0-2.05.28-3.77.84-5.17,1.06-2.63,2.99-3.94,5.78-3.94ZM295.37,22.13c-1.15-.97-2.5-1.45-4.02-1.45-2.33,0-4.04.88-5.13,2.64s-1.63,3.94-1.63,6.55c0,2.81.56,5.06,1.68,6.73,1.1,1.69,2.78,2.54,5.03,2.54s3.97-.84,5.14-2.51,1.76-3.85,1.76-6.51c0-3.73-.94-6.39-2.82-7.99ZM306.04,39.31V3.78h-8.07v14.53c-.89-1.43-2.06-2.56-3.49-3.37-1.43-.81-3.07-1.22-4.92-1.22-4,0-7.2,1.49-9.6,4.47-2.39,2.98-3.59,7.07-3.59,12.26,0,4.51,1.22,8.2,3.65,11.08,2.43,2.88,5.42,4.32,8.98,4.32,1.01,0,1.93-.1,2.78-.28-9.38,3.57-20.04,6.72-31.48,9.12-41.41,8.71-77.34,4.55-80.25-9.29-1.75-8.3,8.78-18.2,26.42-26.68-2.08,3.01-3.13,6.69-3.13,11.03,0,4.69,1.17,8.41,3.51,11.16,2.34,2.75,5.46,4.12,9.37,4.12,2.53,0,4.59-.61,6.17-1.82.88-.65,1.69-1.63,2.46-2.93v1.96c0,2.91-.32,4.97-.95,6.2-.97,1.92-2.89,2.88-5.76,2.88-2.03,0-3.47-.36-4.33-1.09-.5-.41-.87-1.08-1.09-2.01h-8.66c.26,3.04,1.62,5.32,4.08,6.84s5.63,2.29,9.53,2.29c6.44,0,10.8-1.71,13.08-5.14,1.32-1.99,1.98-4.95,1.98-8.88V14.45h-7.74v4.39c-1.19-2.14-2.76-3.61-4.69-4.41-.72-.3-1.54-.49-2.42-.6,9.47-3.64,20.27-6.83,31.87-9.27C291.16-4.16,327.09,0,330,13.85c1.66,7.91-7.82,17.27-23.96,25.46ZM257.77,13.78c-.35-.02-.58-.03-.68-.04s-.23-.01-.38-.01c-2.38,0-4.32.62-5.81,1.87-.91.75-1.98,2.13-3.21,4.16v-5.31h-7.6v30.45h8.02v-14.56c0-2.44.31-4.25.92-5.42,1.1-2.09,3.25-3.13,6.45-3.13.24,0,.56,0,.95.03s.84.06,1.34.11v-8.16ZM270.62,14.45h-8.07v30.45h8.07V14.45ZM270.62,3.47h-8.07v7.35h8.07V3.47Z"/>
      <g>
        <path class="cls-1" d="M15.39,21.8c-3.2,0-5.35,1.04-6.45,3.13-.61,1.17-.92,2.98-.92,5.42v14.56H0V14.45h7.6v5.31c1.23-2.03,2.3-3.42,3.21-4.16,1.49-1.25,3.43-1.87,5.81-1.87.15,0,.27,0,.38.01s.33.02.68.04v8.16c-.5-.06-.95-.09-1.34-.11s-.71-.03-.95-.03Z"/>
        <path class="cls-1" d="M48.42,35.96c-.2,1.81-1.15,3.64-2.82,5.5-2.61,2.96-6.26,4.44-10.95,4.44-3.87,0-7.29-1.25-10.25-3.74-2.96-2.5-4.44-6.56-4.44-12.18,0-5.27,1.34-9.31,4.01-12.13,2.67-2.81,6.14-4.22,10.41-4.22,2.53,0,4.81.47,6.84,1.42,2.03.95,3.71,2.45,5.03,4.5,1.19,1.81,1.96,3.9,2.32,6.29.2,1.4.29,3.41.25,6.03h-20.84c.11,3.05,1.07,5.2,2.88,6.43,1.1.76,2.42,1.15,3.97,1.15,1.64,0,2.97-.47,4-1.4.56-.5,1.05-1.2,1.48-2.1h8.13ZM40.54,26.63c-.13-2.1-.77-3.7-1.91-4.79-1.15-1.09-2.57-1.63-4.26-1.63-1.84,0-3.27.58-4.29,1.73s-1.65,2.72-1.91,4.69h12.38Z"/>
        <path class="cls-1" d="M68.5,20.34c-2.7,0-4.55,1.15-5.56,3.44-.52,1.21-.78,2.76-.78,4.64v16.48h-7.93V14.5h7.68v4.44c1.02-1.56,1.99-2.69,2.91-3.38,1.64-1.23,3.72-1.84,6.23-1.84,3.15,0,5.72.82,7.72,2.47s3,4.38,3,8.2v20.51h-8.16v-18.52c0-1.6-.21-2.83-.64-3.69-.78-1.56-2.27-2.35-4.47-2.35Z"/>
        <path class="cls-1" d="M103.06,39.23v5.95l-3.77.14c-3.76.13-6.33-.52-7.71-1.96-.89-.91-1.34-2.32-1.34-4.22v-18.75h-4.25v-5.67h4.25V6.23h7.88v8.49h4.95v5.67h-4.95v16.09c0,1.25.16,2.03.47,2.33s1.29.46,2.91.46c.24,0,.5,0,.77-.01s.54-.02.8-.04Z"/>
        <path class="cls-1" d="M134.24,35.96c-.2,1.81-1.15,3.64-2.82,5.5-2.61,2.96-6.26,4.44-10.95,4.44-3.87,0-7.29-1.25-10.25-3.74-2.96-2.5-4.44-6.56-4.44-12.18,0-5.27,1.34-9.31,4.01-12.13,2.67-2.81,6.14-4.22,10.41-4.22,2.53,0,4.81.47,6.84,1.42,2.03.95,3.71,2.45,5.03,4.5,1.19,1.81,1.96,3.9,2.32,6.29.2,1.4.29,3.41.25,6.03h-20.84c.11,3.05,1.07,5.2,2.88,6.43,1.1.76,2.42,1.15,3.97,1.15,1.64,0,2.97-.47,4-1.4.56-.5,1.05-1.2,1.48-2.1h8.13ZM126.36,26.63c-.13-2.1-.77-3.7-1.91-4.79-1.15-1.09-2.57-1.63-4.26-1.63-1.84,0-3.27.58-4.29,1.73s-1.65,2.72-1.91,4.69h12.38Z"/>
        <path class="cls-1" d="M155.31,21.8c-3.2,0-5.35,1.04-6.45,3.13-.61,1.17-.92,2.98-.92,5.42v14.56h-8.02V14.45h7.6v5.31c1.23-2.03,2.3-3.42,3.21-4.16,1.49-1.25,3.43-1.87,5.81-1.87.15,0,.27,0,.38.01s.33.02.68.04v8.16c-.5-.06-.95-.09-1.34-.11s-.71-.03-.95-.03Z"/>
        <path class="cls-1" d="M183.25,15.85c2.38,1.53,3.75,4.15,4.11,7.88h-7.96c-.11-1.02-.4-1.83-.87-2.43-.88-1.08-2.37-1.62-4.47-1.62-1.73,0-2.97.27-3.7.81s-1.1,1.17-1.1,1.9c0,.91.39,1.57,1.17,1.98.78.43,3.55,1.16,8.3,2.21,3.17.75,5.54,1.87,7.12,3.38,1.56,1.53,2.35,3.44,2.35,5.73,0,3.02-1.12,5.48-3.37,7.39-2.24,1.91-5.71,2.86-10.41,2.86s-8.32-1.01-10.6-3.03c-2.28-2.02-3.42-4.6-3.42-7.72h8.07c.17,1.42.53,2.42,1.09,3.02.99,1.06,2.81,1.59,5.48,1.59,1.56,0,2.81-.23,3.73-.7s1.38-1.16,1.38-2.1-.37-1.57-1.12-2.04-3.51-1.27-8.3-2.4c-3.45-.86-5.88-1.93-7.29-3.21-1.42-1.27-2.12-3.09-2.12-5.48,0-2.81,1.1-5.23,3.31-7.25,2.21-2.02,5.31-3.03,9.32-3.03s6.9.75,9.3,2.26Z"/>
      </g>
    </g>
  </g>
</svg>