<?xml version="1.0" encoding="UTF-8"?>
<svg id="Layer_2" data-name="Layer 2" xmlns="http://www.w3.org/2000/svg" viewBox="0 0 272.95 48.98">
  <defs>
    <style>
      .cls-1 {
        fill: #94c940;
      }

      .cls-1, .cls-2 {
        stroke-width: 0px;
      }

      .cls-2 {
        fill: #fff;
      }
    </style>
  </defs>
  <g id="Layer_1-2" data-name="Layer 1">
    <g>
      <path class="cls-1" d="M180.38,17.09c1.69,0,3.04.62,4.05,1.87,1.01,1.25,1.51,3.06,1.51,5.45,0,2.54-.53,4.39-1.59,5.55s-2.36,1.74-3.9,1.74c-2.31,0-3.91-1.06-4.8-3.19-.49-1.14-.74-2.44-.74-3.9,0-1.69.23-3.12.69-4.27.88-2.17,2.47-3.26,4.78-3.26ZM244.17,18.29c-.95-.8-2.06-1.2-3.33-1.2-1.92,0-3.34.73-4.24,2.18s-1.35,3.26-1.35,5.42c0,2.32.46,4.18,1.39,5.57.91,1.4,2.29,2.1,4.16,2.1s3.28-.69,4.25-2.08,1.45-3.18,1.45-5.38c0-3.08-.78-5.28-2.33-6.61ZM252.99,32.5V3.12h-6.67v12.01c-.74-1.19-1.7-2.11-2.89-2.78s-2.54-1-4.06-1c-3.31,0-5.95,1.23-7.93,3.7s-2.97,5.84-2.97,10.14c0,3.73,1,6.78,3.01,9.16,2.01,2.38,4.48,3.57,7.42,3.57.83,0,1.59-.08,2.3-.23-7.75,2.95-16.56,5.55-26.02,7.54-34.23,7.2-63.93,3.76-66.34-7.68-1.44-6.86,7.26-15.05,21.84-22.05-1.72,2.49-2.58,5.53-2.58,9.12,0,3.88.97,6.96,2.9,9.23,1.93,2.27,4.52,3.41,7.75,3.41,2.09,0,3.8-.5,5.1-1.5.72-.54,1.4-1.35,2.03-2.42v1.62c0,2.4-.26,4.11-.79,5.13-.8,1.59-2.39,2.38-4.76,2.38-1.68,0-2.87-.3-3.58-.9-.42-.34-.72-.89-.9-1.66h-7.16c.22,2.51,1.34,4.4,3.37,5.66s4.66,1.89,7.88,1.89c5.33,0,8.93-1.42,10.81-4.25,1.09-1.65,1.64-4.1,1.64-7.34V11.94h-6.4v3.63c-.99-1.77-2.28-2.99-3.88-3.65-.6-.25-1.27-.4-2-.49,7.83-3.01,16.76-5.64,26.34-7.66C240.68-3.44,270.39,0,272.79,11.45c1.38,6.54-6.46,14.27-19.8,21.05ZM213.08,11.39c-.29-.02-.48-.03-.57-.03s-.19-.01-.31-.01c-1.97,0-3.57.52-4.8,1.55-.75.62-1.64,1.76-2.66,3.44v-4.39h-6.28v25.17h6.63v-12.03c0-2.02.25-3.51.76-4.48.91-1.72,2.69-2.59,5.33-2.59.2,0,.46,0,.79.02s.69.05,1.11.09v-6.74ZM223.7,11.94h-6.67v25.17h6.67V11.94ZM223.7,2.87h-6.67v6.07h6.67V2.87Z"/>
      <g>
        <path class="cls-2" d="M12.73,18.02c-2.65,0-4.43.86-5.33,2.59-.51.97-.76,2.46-.76,4.48v12.03H0V11.94h6.28v4.39c1.02-1.68,1.9-2.83,2.66-3.44,1.23-1.03,2.83-1.55,4.8-1.55.12,0,.23,0,.31.01s.27.02.57.03v6.74c-.42-.05-.79-.08-1.11-.09s-.59-.02-.79-.02Z"/>
        <path class="cls-2" d="M40.02,29.73c-.17,1.49-.95,3.01-2.33,4.55-2.16,2.45-5.17,3.67-9.05,3.67-3.2,0-6.03-1.03-8.48-3.09-2.45-2.06-3.67-5.42-3.67-10.07,0-4.36,1.1-7.7,3.31-10.02s5.08-3.49,8.6-3.49c2.09,0,3.98.39,5.66,1.18,1.68.79,3.06,2.02,4.16,3.72.99,1.49,1.62,3.23,1.92,5.2.17,1.15.24,2.82.21,4.99h-17.23c.09,2.53.89,4.3,2.38,5.31.91.63,2,.95,3.28.95,1.35,0,2.46-.38,3.3-1.15.46-.42.87-.99,1.22-1.73h6.72ZM33.51,22.01c-.11-1.74-.64-3.06-1.58-3.96s-2.12-1.35-3.52-1.35c-1.52,0-2.71.48-3.55,1.43s-1.37,2.25-1.58,3.88h10.23Z"/>
        <path class="cls-2" d="M56.63,16.82c-2.23,0-3.76.95-4.6,2.84-.43,1-.65,2.28-.65,3.83v13.63h-6.56V11.99h6.35v3.67c.85-1.29,1.65-2.22,2.4-2.79,1.35-1.02,3.07-1.52,5.15-1.52,2.6,0,4.73.68,6.39,2.04s2.48,3.62,2.48,6.78v16.95h-6.74v-15.31c0-1.32-.18-2.34-.53-3.05-.65-1.29-1.88-1.94-3.7-1.94Z"/>
        <path class="cls-2" d="M85.2,32.43v4.92l-3.12.12c-3.11.11-5.23-.43-6.37-1.62-.74-.75-1.11-1.92-1.11-3.49v-15.5h-3.51v-4.69h3.51v-7.02h6.51v7.02h4.09v4.69h-4.09v13.3c0,1.03.13,1.67.39,1.93s1.06.38,2.4.38c.2,0,.41,0,.64-.01s.44-.02.66-.03Z"/>
        <path class="cls-2" d="M110.97,29.73c-.17,1.49-.95,3.01-2.33,4.55-2.16,2.45-5.17,3.67-9.05,3.67-3.2,0-6.03-1.03-8.48-3.09-2.45-2.06-3.67-5.42-3.67-10.07,0-4.36,1.1-7.7,3.31-10.02,2.21-2.32,5.08-3.49,8.6-3.49,2.09,0,3.98.39,5.66,1.18,1.68.79,3.06,2.02,4.16,3.72.99,1.49,1.62,3.23,1.92,5.2.17,1.15.24,2.82.21,4.99h-17.23c.09,2.53.89,4.3,2.38,5.31.91.63,2,.95,3.28.95,1.35,0,2.46-.38,3.3-1.15.46-.42.87-.99,1.22-1.73h6.72ZM104.46,22.01c-.11-1.74-.64-3.06-1.58-3.96s-2.12-1.35-3.52-1.35c-1.52,0-2.71.48-3.55,1.43s-1.37,2.25-1.58,3.88h10.23Z"/>
        <path class="cls-2" d="M128.38,18.02c-2.65,0-4.43.86-5.33,2.59-.51.97-.76,2.46-.76,4.48v12.03h-6.63V11.94h6.28v4.39c1.02-1.68,1.9-2.83,2.66-3.44,1.23-1.03,2.83-1.55,4.8-1.55.12,0,.23,0,.31.01s.27.02.57.03v6.74c-.42-.05-.79-.08-1.11-.09s-.59-.02-.79-.02Z"/>
        <path class="cls-2" d="M151.48,13.1c1.97,1.26,3.1,3.43,3.39,6.51h-6.58c-.09-.85-.33-1.52-.72-2.01-.72-.89-1.96-1.34-3.7-1.34-1.43,0-2.45.22-3.06.67s-.91.97-.91,1.57c0,.75.32,1.3.97,1.64.65.35,2.93.96,6.86,1.82,2.62.62,4.58,1.55,5.89,2.79,1.29,1.26,1.94,2.84,1.94,4.73,0,2.49-.93,4.53-2.78,6.11s-4.72,2.37-8.6,2.37-6.88-.84-8.76-2.51-2.83-3.8-2.83-6.39h6.67c.14,1.17.44,2,.9,2.49.82.88,2.32,1.32,4.53,1.32,1.29,0,2.32-.19,3.08-.58s1.14-.96,1.14-1.73-.31-1.3-.92-1.69-2.9-1.05-6.86-1.99c-2.85-.71-4.86-1.59-6.03-2.66-1.17-1.05-1.76-2.56-1.76-4.53,0-2.32.91-4.32,2.74-5.99,1.82-1.67,4.39-2.51,7.7-2.51s5.7.62,7.69,1.87Z"/>
      </g>
    </g>
  </g>
</svg>