<?xml version="1.0" encoding="UTF-8"?>
<svg id="Layer_2" data-name="Layer 2" xmlns="http://www.w3.org/2000/svg" viewBox="0 0 61.88 60.21">
  <defs>
    <style>
      .cls-1 {
        fill: #4d56a4;
        stroke-width: 0px;
      }
    </style>
  </defs>
  <g id="Layer_1-2" data-name="Layer 1">
    <path class="cls-1" d="M54.78,60.21l-18.29-18.29,7.01-7.01,18.29,18.29-7.01,7.01ZM8.68,60.21l-7.01-7.01,23.05-23.05-5.68-5.68-2.34,2.34-4.26-4.26v6.85l-2.34,2.34L0,21.63l2.34-2.34h6.85l-4.18-4.18L16.87,3.26c1.11-1.11,2.31-1.92,3.59-2.42s2.59-.75,3.92-.75,2.64.25,3.92.75,2.48,1.31,3.59,2.42l-7.68,7.68,4.18,4.18-2.34,2.34,5.68,5.68,7.52-7.52c-.22-.61-.4-1.25-.54-1.92s-.21-1.34-.21-2c0-3.28,1.13-6.05,3.38-8.31,2.25-2.25,5.02-3.38,8.31-3.38.84,0,1.63.08,2.38.25s1.52.42,2.3.75l-8.27,8.27,6.01,6.01,8.27-8.27c.39.78.65,1.54.79,2.3s.21,1.54.21,2.38c0,3.28-1.13,6.05-3.38,8.31s-5.02,3.38-8.31,3.38c-.67,0-1.34-.06-2-.17s-1.31-.31-1.92-.58L8.68,60.21Z"/>
  </g>
</svg>