<?xml version="1.0" encoding="UTF-8"?>
<svg id="Layer_2" data-name="Layer 2" xmlns="http://www.w3.org/2000/svg" viewBox="0 0 28.5 54.87">
  <defs>
    <style>
      .cls-1 {
        fill: #4d56a4;
        stroke-width: 0px;
      }
    </style>
  </defs>
  <g id="Layer_1-2" data-name="Layer 1">
    <path class="cls-1" d="M11.28,54.87v-6.55c-2.69-.61-5.02-1.78-6.97-3.51-1.96-1.73-3.39-4.17-4.31-7.32l5.64-2.29c.76,2.44,1.89,4.29,3.39,5.56s3.47,1.91,5.91,1.91c2.08,0,3.85-.47,5.3-1.41s2.17-2.4,2.17-4.38c0-1.78-.56-3.19-1.68-4.23s-3.71-2.22-7.77-3.54c-4.37-1.37-7.37-3.01-8.99-4.92s-2.44-4.23-2.44-6.97c0-3.3,1.07-5.87,3.2-7.7,2.13-1.83,4.32-2.87,6.55-3.12V0h6.1v6.4c2.54.41,4.64,1.33,6.29,2.78s2.86,3.21,3.62,5.3l-5.64,2.44c-.61-1.63-1.47-2.85-2.59-3.66s-2.64-1.22-4.57-1.22c-2.24,0-3.94.5-5.11,1.49s-1.75,2.22-1.75,3.7c0,1.68.76,3,2.29,3.96s4.17,1.98,7.93,3.05c3.51,1.02,6.16,2.63,7.96,4.84,1.8,2.21,2.71,4.76,2.71,7.66,0,3.61-1.07,6.35-3.2,8.23-2.13,1.88-4.78,3.05-7.93,3.51v6.4h-6.1Z"/>
  </g>
</svg>