<?xml version="1.0" encoding="UTF-8"?>
<svg id="Layer_2" data-name="Layer 2" xmlns="http://www.w3.org/2000/svg" viewBox="0 0 28.05 23.44">
  <defs>
    <style>
      .cls-1 {
        fill: #fff;
      }

      .cls-2 {
        fill: #93c83d;
      }
    </style>
  </defs>
  <g id="Layer_1-2" data-name="Layer 1">
    <g>
      <g>
        <path class="cls-2" d="M16.69,15.63h-6.28c-.78,0-1.41.63-1.41,1.41s.63,1.41,1.41,1.41h6.28c.78,0,1.41-.63,1.41-1.41s-.63-1.41-1.41-1.41Z"/>
        <path class="cls-2" d="M22.33,10.24h-11.92c-.78,0-1.41.63-1.41,1.41s.63,1.41,1.41,1.41h11.92c.78,0,1.41-.63,1.41-1.41s-.63-1.41-1.41-1.41Z"/>
        <path class="cls-2" d="M22.2,4.98h-11.92c-.78,0-1.41.63-1.41,1.41s.63,1.41,1.41,1.41h11.92c.78,0,1.41-.63,1.41-1.41s-.63-1.41-1.41-1.41Z"/>
        <circle class="cls-2" cx="5.72" cy="6.39" r="1.41"/>
        <circle class="cls-2" cx="5.72" cy="11.72" r="1.41"/>
        <circle class="cls-2" cx="5.72" cy="17.05" r="1.41"/>
      </g>
      <path class="cls-1" d="M25.66,2.38v18.67H2.38V2.38h23.28M26.43,0H1.62C.73,0,0,.73,0,1.62v20.19c0,.9.73,1.62,1.62,1.62h24.8c.9,0,1.62-.73,1.62-1.62V1.62c0-.9-.73-1.62-1.62-1.62h0Z"/>
    </g>
  </g>
</svg>