<?xml version="1.0" encoding="UTF-8"?>
<svg id="Layer_2" data-name="Layer 2" xmlns="http://www.w3.org/2000/svg" viewBox="0 0 550.18 530.95">
  <defs>
    <style>
      .cls-1 {
        fill: #94c841;
      }

      .cls-2 {
        fill: #fff;
      }
    </style>
  </defs>
  <g id="Layer_1-2" data-name="Layer 1">
    <g id="Layer_1-2" data-name="Layer 1-2">
      <path class="cls-2" d="M249.14,264.74c73.02,0,132.4-59.32,132.4-132.4S322.27,0,249.14,0,116.74,59.32,116.74,132.4s59.32,132.4,132.4,132.4v-.05Z"/>
      <path class="cls-2" d="M383.65,453.86h-38.52c-14.84,0-26.98-12.08-26.98-26.98v-38.46c0-7.1,2.87-14.08,7.91-19.07l52.01-51.9c-37.6-22.75-81.69-35.81-128.77-35.81-137.65-.05-249.3,111.6-249.3,249.3h498.71c0-51.36-15.55-99.14-42.2-138.79l-53.79,53.79c-5.09,5.09-11.86,7.91-19.07,7.91Z"/>
      <path class="cls-1" d="M543.35,245.62l-16.31-16.58c-2.17-2.38-4.77-4.17-7.69-5.31-2.98-1.19-6.01-1.79-9.21-1.79s-6.18.6-9.05,1.79c-2.87,1.19-5.47,2.87-7.86,5.04l-154.01,153.74c-1.57,1.57-2.49,3.74-2.49,5.96v38.52c0,4.66,3.74,8.4,8.4,8.4h38.52c2.22,0,4.39-.87,5.96-2.44l153.74-153.74c2.38-2.38,4.12-4.98,5.2-7.86,1.08-2.87,1.63-5.9,1.63-9.05,0-2.98-.54-5.9-1.63-8.88-1.08-2.98-2.82-5.53-5.2-7.69v-.11ZM487.34,301.63l-107.48,107.48c-1.57,1.57-3.74,2.44-5.96,2.44h-4.98c-4.66,0-8.4-3.74-8.4-8.4v-4.98c0-2.22.87-4.39,2.44-5.96l107.48-107.48c2.98-2.98,7.64-3.25,10.94-.81l3.3,3.47,3.47,3.3c2.44,3.3,2.17,7.96-.81,10.94Z"/>
    </g>
  </g>
</svg>