<?xml version="1.0" encoding="UTF-8"?>
<svg id="Layer_2" data-name="Layer 2" xmlns="http://www.w3.org/2000/svg" xmlns:xlink="http://www.w3.org/1999/xlink" viewBox="0 0 87.04 28.28">
  <defs>
    <style>
      .cls-1 {
        fill: #d1d3d4;
        stroke-width: 0px;
      }

      .cls-2 {
        fill: url(#linear-gradient);
        stroke: #fff;
        stroke-miterlimit: 10;
      }
    </style>
    <linearGradient id="linear-gradient" x1="43.52" y1="27.78" x2="43.52" y2=".5" gradientUnits="userSpaceOnUse">
      <stop offset="0" stop-color="#fff"/>
      <stop offset=".05" stop-color="#f4f4f4"/>
      <stop offset=".22" stop-color="#d3d3d3"/>
      <stop offset=".41" stop-color="#b9b9b9"/>
      <stop offset=".59" stop-color="#a6a6a6"/>
      <stop offset=".78" stop-color="#9b9b9b"/>
      <stop offset=".99" stop-color="#989898"/>
    </linearGradient>
  </defs>
  <g id="Layer_1-2" data-name="Layer 1">
    <g>
      <rect class="cls-2" x=".5" y=".5" width="86.04" height="27.28" rx="8" ry="8"/>
      <g>
        <path class="cls-1" d="M32.41,19.51h-2.3l-4.5-7.82v7.82h-2.14v-11.01h2.41l4.38,7.69v-7.69h2.14v11.01Z"/>
        <path class="cls-1" d="M34.69,12.25c.56-.72,1.53-1.08,2.9-1.08.89,0,1.68.18,2.38.53s1.04,1.02,1.04,2v3.73c0,.26,0,.57.02.94.01.28.06.47.13.57.07.1.17.18.31.25v.31h-2.32c-.06-.16-.11-.32-.13-.46-.03-.14-.04-.31-.06-.49-.29.32-.63.59-1.02.81-.46.26-.98.4-1.55.4-.74,0-1.35-.21-1.83-.63-.48-.42-.72-1.02-.72-1.79,0-1,.39-1.73,1.16-2.17.42-.24,1.05-.42,1.87-.52l.72-.09c.39-.05.67-.11.84-.19.3-.13.46-.33.46-.61,0-.33-.12-.56-.35-.69-.23-.13-.57-.19-1.02-.19-.5,0-.86.12-1.07.37-.15.18-.25.43-.3.75h-2.05c.04-.71.24-1.3.6-1.76ZM36.27,17.97c.2.16.44.25.73.25.46,0,.88-.13,1.27-.4.39-.27.59-.76.6-1.47v-.79c-.13.08-.27.15-.41.21-.14.05-.32.1-.56.15l-.48.09c-.45.08-.77.18-.96.29-.33.19-.49.5-.49.9,0,.36.1.63.31.78Z"/>
        <path class="cls-1" d="M47.46,13.61c-.18-.39-.53-.59-1.05-.59-.61,0-1.02.2-1.23.59-.11.22-.17.56-.17,1v4.9h-2.16v-8.13h2.07v1.19c.26-.42.51-.72.75-.9.41-.32.95-.48,1.61-.48.62,0,1.13.14,1.51.41.31.25.54.58.7.98.28-.48.62-.83,1.04-1.05.44-.22.93-.34,1.46-.34.36,0,.71.07,1.06.21s.66.38.95.73c.23.28.38.63.46,1.05.05.27.07.67.07,1.2l-.02,5.13h-2.18v-5.18c0-.31-.05-.56-.15-.76-.19-.38-.54-.57-1.05-.57-.59,0-.99.24-1.22.73-.11.26-.17.57-.17.93v4.85h-2.14v-4.85c0-.48-.05-.83-.15-1.05Z"/>
        <path class="cls-1" d="M63.46,17.12c-.05.48-.31.97-.75,1.47-.7.79-1.67,1.19-2.93,1.19-1.04,0-1.95-.33-2.74-1s-1.19-1.75-1.19-3.26c0-1.41.36-2.49,1.07-3.24.71-.75,1.64-1.13,2.78-1.13.68,0,1.29.13,1.83.38s.99.65,1.34,1.2c.32.48.53,1.04.62,1.68.05.37.08.91.07,1.61h-5.57c.03.82.29,1.39.77,1.72.29.2.65.31,1.06.31.44,0,.79-.12,1.07-.37.15-.13.28-.32.4-.56h2.17ZM61.36,14.63c-.04-.56-.21-.99-.51-1.28-.31-.29-.69-.44-1.14-.44-.49,0-.88.15-1.15.46s-.44.73-.51,1.25h3.31Z"/>
      </g>
    </g>
  </g>
</svg>