<?xml version="1.0" encoding="UTF-8"?>
<svg id="Layer_2" data-name="Layer 2" xmlns="http://www.w3.org/2000/svg" viewBox="0 0 62.96 59.81">
  <defs>
    <style>
      .cls-1 {
        fill: #4d56a4;
        stroke-width: 0px;
      }
    </style>
  </defs>
  <g id="Layer_1-2" data-name="Layer 1">
    <path class="cls-1" d="M7.87,28.33c-2.2,0-4.07-.76-5.59-2.28-1.52-1.52-2.28-3.38-2.28-5.59s.76-4.07,2.28-5.59c1.52-1.52,3.38-2.28,5.59-2.28s4.07.76,5.59,2.28c1.52,1.52,2.28,3.38,2.28,5.59s-.76,4.07-2.28,5.59c-1.52,1.52-3.38,2.28-5.59,2.28ZM22.04,15.74c-2.2,0-4.07-.76-5.59-2.28-1.52-1.52-2.28-3.38-2.28-5.59s.76-4.07,2.28-5.59,3.38-2.28,5.59-2.28,4.07.76,5.59,2.28,2.28,3.38,2.28,5.59-.76,4.07-2.28,5.59-3.38,2.28-5.59,2.28ZM40.92,15.74c-2.2,0-4.07-.76-5.59-2.28-1.52-1.52-2.28-3.38-2.28-5.59s.76-4.07,2.28-5.59c1.52-1.52,3.38-2.28,5.59-2.28s4.07.76,5.59,2.28c1.52,1.52,2.28,3.38,2.28,5.59s-.76,4.07-2.28,5.59c-1.52,1.52-3.38,2.28-5.59,2.28ZM55.09,28.33c-2.2,0-4.07-.76-5.59-2.28-1.52-1.52-2.28-3.38-2.28-5.59s.76-4.07,2.28-5.59,3.38-2.28,5.59-2.28,4.07.76,5.59,2.28,2.28,3.38,2.28,5.59-.76,4.07-2.28,5.59c-1.52,1.52-3.38,2.28-5.59,2.28ZM14.64,59.81c-2.36,0-4.34-.91-5.94-2.72s-2.4-3.95-2.4-6.41c0-2.73.93-5.12,2.79-7.16s3.71-4.07,5.55-6.06c1.52-1.63,2.83-3.4,3.94-5.31,1.1-1.92,2.41-3.71,3.94-5.39,1.15-1.36,2.49-2.49,4.01-3.38s3.17-1.34,4.96-1.34,3.44.42,4.96,1.26,2.86,1.94,4.01,3.31c1.47,1.68,2.77,3.49,3.9,5.43,1.13,1.94,2.45,3.75,3.97,5.43,1.84,1.99,3.69,4.01,5.55,6.06,1.86,2.05,2.79,4.43,2.79,7.16,0,2.47-.8,4.6-2.4,6.41s-3.58,2.72-5.94,2.72c-2.83,0-5.64-.24-8.42-.71s-5.59-.71-8.42-.71-5.64.24-8.42.71-5.59.71-8.42.71Z"/>
  </g>
</svg>