<?xml version="1.0" encoding="UTF-8"?>
<svg id="Layer_2" data-name="Layer 2" xmlns="http://www.w3.org/2000/svg" viewBox="0 0 50.12 81.01">
  <defs>
    <style>
      .cls-1 {
        fill: #93c83f;
      }

      .cls-1, .cls-2 {
        stroke-width: 0px;
      }

      .cls-2 {
        fill: #fff;
      }
    </style>
  </defs>
  <g id="Layer_1-2" data-name="Layer 1">
    <g>
      <path class="cls-2" d="M47.74,18.76c6.74,16.98-1.04,42.28-20.77,61.46-1.09,1.06-2.71,1.06-3.8,0C3.41,61.06-4.36,35.73,2.39,18.76,5.7,10.43,14.17-.03,25.13,0c10.93.03,19.32,10.47,22.61,18.76Z"/>
      <path class="cls-1" d="M25.03,15.06c4.38,0,7.93,3.55,7.93,7.93s-3.55,7.93-7.93,7.93-7.93-3.55-7.93-7.93,3.55-7.93,7.93-7.93ZM39.98,46.85c0-8.24-6.69-14.93-14.93-14.93s-14.93,6.69-14.93,14.93h29.86Z"/>
    </g>
  </g>
</svg>