<?xml version="1.0" encoding="UTF-8"?>
<svg id="Layer_2" data-name="Layer 2" xmlns="http://www.w3.org/2000/svg" viewBox="0 0 235.19 315.34">
  <defs>
    <style>
      .cls-1 {
        fill: #94c93d;
      }

      .cls-2 {
        fill: #93c83f;
      }

      .cls-3 {
        fill: #fff;
      }

      .cls-4 {
        fill: none;
      }
    </style>
  </defs>
  <g id="Layer_1-2" data-name="Layer 1">
    <rect class="cls-4" x="70.82" y="127.23" width="34.42" height="34.42"/>
    <rect class="cls-4" x="70.82" y="212.58" width="34.42" height="34.42"/>
    <rect class="cls-4" x="26.99" y="84.55" width="34.42" height="34.42"/>
    <rect class="cls-4" x="70.82" y="169.91" width="34.42" height="34.42"/>
    <rect class="cls-4" x="26.99" y="127.23" width="34.42" height="34.42"/>
    <rect class="cls-4" x="26.99" y="169.91" width="34.42" height="34.42"/>
    <rect class="cls-4" x="26.99" y="212.58" width="34.42" height="34.42"/>
    <rect class="cls-4" x="114.65" y="212.58" width="34.42" height="34.42"/>
    <rect class="cls-4" x="114.65" y="84.55" width="34.42" height="34.42"/>
    <rect class="cls-4" x="114.65" y="127.23" width="34.42" height="34.42"/>
    <rect class="cls-4" x="114.65" y="169.91" width="34.42" height="34.42"/>
    <rect class="cls-4" x="70.82" y="84.55" width="34.42" height="34.42"/>
    <path class="cls-3" d="M155.89,105.47v-26.16h-27.33c-11.59,0-20.54-9.47-19.89-21.05h0s-102.1,0-102.1,0c-3.63,0-6.57,2.94-6.57,6.57v250.52h61.41v-18.79c0-14.7,11.92-26.62,26.62-26.62h0c14.7,0,26.62,11.92,26.62,26.62v18.79s61.41,0,61.41,0V126.47c-11.2-.46-20.17-9.69-20.17-21ZM61.41,247H26.99v-34.42h34.42v34.42ZM61.41,204.32H26.99v-34.42h34.42v34.42ZM61.41,161.64H26.99v-34.42h34.42v34.42ZM61.41,118.97H26.99v-34.42h34.42v34.42ZM105.24,247h-34.42v-34.42h34.42v34.42ZM105.24,204.32h-34.42v-34.42h34.42v34.42ZM105.24,161.64h-34.42v-34.42h34.42v34.42ZM105.24,118.97h-34.42v-34.42h34.42v34.42ZM149.07,247h-34.42v-34.42h34.42v34.42ZM149.07,204.32h-34.42v-34.42h34.42v34.42ZM149.07,161.64h-34.42v-34.42h34.42v34.42ZM149.07,118.97h-34.42v-34.42h34.42v34.42Z"/>
    <path class="cls-1" d="M224.14,47.22h-36.17V11.05c0-6.1-4.95-11.05-11.04-11.05s-11.05,4.95-11.05,11.05v36.17h-36.17c-6.1,0-11.04,4.95-11.04,11.04s4.95,11.05,11.04,11.05h36.17v36.16c0,6.1,4.95,11.05,11.05,11.05s11.04-4.95,11.04-11.05v-36.16h36.17c6.1,0,11.04-4.95,11.04-11.05s-4.95-11.04-11.04-11.04Z"/>
    <g>
      <path class="cls-2" d="M88.03,145.26c-7.09,0-12.84,5.75-12.84,12.84h25.67c0-7.09-5.75-12.84-12.84-12.84Z"/>
      <path class="cls-2" d="M88.02,144.4c3.76,0,6.82-3.05,6.82-6.82s-3.05-6.82-6.82-6.82-6.82,3.05-6.82,6.82,3.05,6.82,6.82,6.82Z"/>
    </g>
    <g>
      <path class="cls-2" d="M131.86,230.62c-7.09,0-12.84,5.75-12.84,12.84h25.67c0-7.09-5.75-12.84-12.84-12.84Z"/>
      <path class="cls-2" d="M131.85,229.76c3.76,0,6.82-3.05,6.82-6.82s-3.05-6.82-6.82-6.82-6.82,3.05-6.82,6.82,3.05,6.82,6.82,6.82Z"/>
    </g>
    <g>
      <path class="cls-2" d="M44.2,187.63c-7.09,0-12.84,5.75-12.84,12.84h25.67c0-7.09-5.75-12.84-12.84-12.84Z"/>
      <path class="cls-2" d="M44.19,186.77c3.76,0,6.82-3.05,6.82-6.82s-3.05-6.82-6.82-6.82-6.82,3.05-6.82,6.82,3.05,6.82,6.82,6.82Z"/>
    </g>
    <rect class="cls-2" y="306.64" width="176.06" height="8.7"/>
  </g>
</svg>