<?xml version="1.0" encoding="UTF-8"?>
<svg id="Layer_2" data-name="Layer 2" xmlns="http://www.w3.org/2000/svg" viewBox="0 0 573.19 510.17">
  <defs>
    <style>
      .cls-1 {
        fill: #fff;
      }

      .cls-2 {
        fill: #92c740;
      }
    </style>
  </defs>
  <g id="Layer_1-2" data-name="Layer 1">
    <g>
      <g>
        <circle class="cls-1" cx="239.41" cy="127.25" r="127.25"/>
        <path class="cls-1" d="M347.9,382.5v-86.07c-32.53-16.51-69.3-25.88-108.28-25.88h0C107.28,270.55,0,377.83,0,510.17h0s479.25,0,479.25,0h0c0-35.8-7.91-69.73-21.98-100.23h-81.93c-15.13,0-27.43-12.31-27.43-27.44Z"/>
      </g>
      <g>
        <path class="cls-2" d="M561.05,219.17h-185.71c-6.7,0-12.14,5.43-12.14,12.14v151.2c0,6.7,5.43,12.14,12.14,12.14h185.71c6.7,0,12.14-5.43,12.14-12.14v-151.2c0-6.7-5.43-12.14-12.14-12.14ZM555.35,376.81h-174.33v-139.81h174.33v139.81Z"/>
        <path class="cls-2" d="M488.12,336.22h-46.99c-5.84,0-10.57,4.73-10.57,10.57s4.73,10.57,10.57,10.57h46.99c5.84,0,10.57-4.73,10.57-10.57s-4.73-10.57-10.57-10.57Z"/>
        <path class="cls-2" d="M530.36,295.87h-89.22c-5.84,0-10.57,4.73-10.57,10.57s4.73,10.57,10.57,10.57h89.22c5.84,0,10.57-4.73,10.57-10.57s-4.73-10.57-10.57-10.57Z"/>
        <path class="cls-2" d="M440.19,277.59h89.22c5.84,0,10.57-4.73,10.57-10.57s-4.73-10.57-10.57-10.57h-89.22c-5.84,0-10.57,4.73-10.57,10.57s4.73,10.57,10.57,10.57Z"/>
        <path class="cls-2" d="M406.02,277.59c5.84,0,10.57-4.73,10.57-10.57s-4.73-10.57-10.57-10.57-10.57,4.73-10.57,10.57,4.73,10.57,10.57,10.57Z"/>
        <path class="cls-2" d="M406.02,317.48c5.84,0,10.57-4.73,10.57-10.57s-4.73-10.57-10.57-10.57-10.57,4.73-10.57,10.57,4.73,10.57,10.57,10.57Z"/>
        <path class="cls-2" d="M406.02,357.36c5.84,0,10.57-4.73,10.57-10.57s-4.73-10.57-10.57-10.57-10.57,4.73-10.57,10.57,4.73,10.57,10.57,10.57Z"/>
      </g>
    </g>
  </g>
</svg>