<?xml version="1.0" encoding="UTF-8"?>
<svg id="Layer_2" data-name="Layer 2" xmlns="http://www.w3.org/2000/svg" viewBox="0 0 55.6 54.07">
  <defs>
    <style>
      .cls-1 {
        fill: #4d56a4;
        stroke-width: 0px;
      }
    </style>
  </defs>
  <g id="Layer_1-2" data-name="Layer 1">
    <path class="cls-1" d="M0,54.07v-5.56c2.13,0,4.24-.14,6.32-.42s4.12-.79,6.12-1.53c-2.13-1.07-3.81-2.61-5.04-4.62s-1.84-4.2-1.84-6.57v-6.32h11.12v-8.34h9.38L16.96,2.5l5-2.5,9.1,18.21c.93,1.85.86,3.66-.21,5.42-1.07,1.76-2.64,2.64-4.73,2.64h-3.89v2.78c0,1.53-.54,2.84-1.63,3.93s-2.4,1.63-3.93,1.63h-5.56v.76c0,1.62.5,3.05,1.49,4.27,1,1.23,2.26,2.05,3.79,2.47l.83.21c1.85.46,2.9,1.62,3.13,3.48s-.49,3.24-2.15,4.17c-2.78,1.53-5.71,2.59-8.79,3.2-3.08.6-6.22.9-9.42.9ZM39.76,46.15l-3.96-3.89c.97-.97,1.74-2.1,2.29-3.37s.83-2.65.83-4.14-.28-2.86-.83-4.14-1.32-2.4-2.29-3.37l3.96-3.96c1.48,1.48,2.64,3.21,3.48,5.18s1.25,4.07,1.25,6.29-.42,4.31-1.25,6.26-1.99,3.66-3.48,5.14ZM47.61,54.07l-3.96-3.96c1.99-1.99,3.56-4.3,4.69-6.92,1.14-2.62,1.7-5.43,1.7-8.44s-.57-5.88-1.7-8.48c-1.14-2.59-2.7-4.89-4.69-6.88l3.96-3.96c2.5,2.5,4.46,5.4,5.87,8.69,1.41,3.29,2.12,6.83,2.12,10.63s-.71,7.29-2.12,10.6-3.37,6.22-5.87,8.72Z"/>
  </g>
</svg>