<?xml version="1.0" encoding="UTF-8"?>
<svg id="Layer_2" data-name="Layer 2" xmlns="http://www.w3.org/2000/svg" viewBox="0 0 71.03 67.6">
  <defs>
    <style>
      .cls-1 {
        fill: #4d56a4;
        stroke-width: 0px;
      }
    </style>
  </defs>
  <g id="Layer_1-2" data-name="Layer 1">
    <path class="cls-1" d="M36.04.38l8,24.64c.07.23.29.38.53.38h25.9c.53,0,.76.68.32,1l-20.96,15.23c-.19.14-.27.39-.2.62l8,24.64c.17.51-.42.93-.85.62l-20.96-15.23c-.19-.14-.46-.14-.65,0l-20.96,15.23c-.43.31-1.02-.11-.85-.62l8-24.64c.07-.23,0-.48-.2-.62L.23,26.4c-.43-.31-.21-1,.32-1h25.9c.24,0,.45-.15.53-.38L34.99.38c.17-.51.89-.51,1.05,0Z"/>
  </g>
</svg>