<?xml version="1.0" encoding="UTF-8"?>
<svg id="Layer_2" xmlns="http://www.w3.org/2000/svg" viewBox="0 0 24.75 22.27">
  <defs>
    <style>
      .cls-1 {
        fill: #93c83f;
      }
    </style>
  </defs>
  <g id="Layer_1-2" data-name="Layer_1">
    <path class="cls-1" d="M24.33,17.57L15.09,1.56c-1.2-2.09-4.22-2.09-5.42,0L.42,17.57c-1.2,2.09.3,4.69,2.71,4.69h18.48c2.41,0,3.91-2.61,2.71-4.69ZM13.99,17.87c0,.89-.72,1.61-1.61,1.61s-1.61-.72-1.61-1.61h0c0-.89.72-1.61,1.61-1.61s1.61.72,1.61,1.61h0ZM13.99,13.39c0,.89-.72,1.61-1.61,1.61s-1.61-.72-1.61-1.61v-7.4c0-.89.72-1.61,1.61-1.61s1.61.72,1.61,1.61v7.4Z"/>
  </g>
</svg>