<?xml version="1.0" encoding="UTF-8"?>
<svg id="Layer_2" xmlns="http://www.w3.org/2000/svg" viewBox="0 0 49.49 49.49">
  <defs>
    <style>
      .cls-1 {
        fill: #939598;
      }
    </style>
  </defs>
  <g id="Layer_1-2" data-name="Layer_1">
    <path class="cls-1" d="M24.75,0C11.1,0,0,11.1,0,24.75s11.1,24.75,24.75,24.75,24.75-11.1,24.75-24.75S38.39,0,24.75,0ZM11.74,16.86h6.93c1.31,0,2.38,1.06,2.38,2.38s-1.06,2.38-2.38,2.38h-6.93c-1.31,0-2.38-1.06-2.38-2.38s1.06-2.38,2.38-2.38ZM17.47,37.15c-.36.92-1.4,1.36-2.31,1-.91-.36-1.36-1.4-1-2.31,1.62-4.1,5.99-6.76,10.88-6.67,4.63.1,8.77,2.78,10.31,6.67.36.92-.09,1.95-1,2.31-.21.08-.44.12-.65.12-.71,0-1.38-.43-1.66-1.13-1.01-2.57-3.86-4.34-7.07-4.41-.07,0-.13,0-.2,0-3.27,0-6.25,1.8-7.29,4.42ZM37.27,21.61h-6.93c-1.31,0-2.38-1.06-2.38-2.38s1.06-2.38,2.38-2.38h6.93c1.31,0,2.38,1.06,2.38,2.38s-1.06,2.38-2.38,2.38Z"/>
  </g>
</svg>