<?xml version="1.0" encoding="UTF-8"?>
<svg id="Layer_2" xmlns="http://www.w3.org/2000/svg" viewBox="0 0 49.49 49.49">
  <defs>
    <style>
      .cls-1 {
        fill: #939598;
      }
    </style>
  </defs>
  <g id="Layer_1-2" data-name="Layer_1">
    <path class="cls-1" d="M24.75,0C11.1,0,0,11.1,0,24.75s11.1,24.75,24.75,24.75,24.75-11.1,24.75-24.75S38.39,0,24.75,0ZM16.56,15.38c2.04,0,3.69,1.65,3.69,3.69s-1.65,3.69-3.69,3.69-3.69-1.65-3.69-3.69,1.65-3.69,3.69-3.69ZM17.28,31.74c0-.98.8-1.78,1.78-1.78h11.06c.98,0,1.78.8,1.78,1.78s-.8,1.78-1.78,1.78h-11.06c-.98,0-1.78-.8-1.78-1.78ZM32.93,22.76c-2.04,0-3.69-1.65-3.69-3.69s1.65-3.69,3.69-3.69,3.69,1.65,3.69,3.69-1.65,3.69-3.69,3.69Z"/>
  </g>
</svg>