<?xml version="1.0" encoding="UTF-8"?>
<svg id="Layer_2" xmlns="http://www.w3.org/2000/svg" viewBox="0 0 49.49 49.49">
  <defs>
    <style>
      .cls-1 {
        fill: #939598;
      }
    </style>
  </defs>
  <g id="Layer_1-2" data-name="Layer_1">
    <path class="cls-1" d="M24.75,0C11.1,0,0,11.1,0,24.75s11.1,24.75,24.75,24.75,24.75-11.1,24.75-24.75S38.39,0,24.75,0ZM16.56,15.38c2.04,0,3.69,1.65,3.69,3.69s-1.65,3.69-3.69,3.69-3.69-1.65-3.69-3.69,1.65-3.69,3.69-3.69ZM14.15,31.6c-.36-.92.09-1.95,1-2.31.92-.36,1.95.09,2.31,1,1.01,2.57,3.86,4.34,7.07,4.41,3.35.07,6.43-1.74,7.49-4.41.36-.92,1.4-1.36,2.31-1,.91.36,1.36,1.4,1,2.31-1.59,4.02-5.82,6.67-10.59,6.67-.1,0-.19,0-.29,0-4.63-.1-8.77-2.78-10.31-6.67ZM32.93,22.76c-2.04,0-3.69-1.65-3.69-3.69s1.65-3.69,3.69-3.69,3.69,1.65,3.69,3.69-1.65,3.69-3.69,3.69Z"/>
  </g>
</svg>