<?xml version="1.0" encoding="UTF-8"?>
<svg id="Layer_2" xmlns="http://www.w3.org/2000/svg" viewBox="0 0 49.49 49.49">
  <defs>
    <style>
      .cls-1 {
        fill: #939598;
      }
    </style>
  </defs>
  <g id="Layer_1-2" data-name="Layer_1">
    <path class="cls-1" d="M24.75,0C11.1,0,0,11.1,0,24.75s11.1,24.75,24.75,24.75,24.75-11.1,24.75-24.75S38.39,0,24.75,0ZM13.17,17.81c-.85-.49-1.15-1.58-.66-2.43.49-.85,1.58-1.15,2.43-.66l5.54,3.17c.56.32.91.92.9,1.57,0,.65-.37,1.24-.94,1.55l-5.94,3.17c-.27.14-.55.21-.84.21-.64,0-1.25-.34-1.57-.94-.46-.87-.13-1.95.73-2.41l3.09-1.65-2.74-1.57ZM24.4,38.27c-4.63-.1-8.77-2.78-10.31-6.67-.36-.92.09-1.95,1-2.31.92-.36,1.95.09,2.31,1,1.01,2.57,3.86,4.34,7.07,4.41,3.36.07,6.43-1.74,7.49-4.41.36-.92,1.4-1.36,2.31-1,.91.36,1.36,1.4,1,2.31-1.59,4.02-5.82,6.67-10.59,6.67-.1,0-.19,0-.29,0ZM37.4,23.44c-.32.6-.94.94-1.57.94-.28,0-.57-.07-.84-.21l-5.94-3.17c-.57-.31-.93-.9-.94-1.55,0-.65.33-1.25.9-1.57l5.54-3.17c.85-.49,1.94-.19,2.43.66.49.85.19,1.94-.66,2.43l-2.74,1.57,3.09,1.65c.87.46,1.2,1.54.73,2.41Z"/>
  </g>
</svg>