<?xml version="1.0" encoding="UTF-8"?>
<svg id="Layer_2" data-name="Layer 2" xmlns="http://www.w3.org/2000/svg" viewBox="0 0 48.89 64.16">
  <defs>
    <style>
      .cls-1 {
        fill: #4d56a4;
        stroke-width: 0px;
      }
    </style>
  </defs>
  <g id="Layer_1-2" data-name="Layer 1">
    <path class="cls-1" d="M6.11,64.16c-1.68,0-3.12-.6-4.32-1.8-1.2-1.2-1.8-2.64-1.8-4.32v-30.55c0-1.68.6-3.12,1.8-4.32s2.64-1.8,4.32-1.8h3.06v-6.11c0-4.23,1.49-7.83,4.47-10.81S20.22,0,24.44,0s7.83,1.49,10.81,4.47c2.98,2.98,4.47,6.58,4.47,10.81v6.11h3.06c1.68,0,3.12.6,4.32,1.8s1.8,2.64,1.8,4.32v30.55c0,1.68-.6,3.12-1.8,4.32s-2.64,1.8-4.32,1.8H6.11ZM6.11,58.05h36.66v-30.55H6.11v30.55ZM24.44,48.89c1.68,0,3.12-.6,4.32-1.8s1.8-2.64,1.8-4.32-.6-3.12-1.8-4.32-2.64-1.8-4.32-1.8-3.12.6-4.32,1.8-1.8,2.64-1.8,4.32.6,3.12,1.8,4.32c1.2,1.2,2.64,1.8,4.32,1.8ZM15.28,21.39h18.33v-6.11c0-2.55-.89-4.71-2.67-6.49s-3.95-2.67-6.49-2.67-4.71.89-6.49,2.67-2.67,3.95-2.67,6.49v6.11ZM6.11,58.05v-30.55,30.55Z"/>
  </g>
</svg>