<?xml version="1.0" encoding="UTF-8"?>
<svg id="Layer_2" data-name="Layer 2" xmlns="http://www.w3.org/2000/svg" viewBox="0 0 43.76 43.76">
  <defs>
    <style>
      .cls-1 {
        fill: #fff;
      }
    </style>
  </defs>
  <g id="Layer_1-2" data-name="Layer 1">
    <g>
      <path class="cls-1" d="M34.7.67c-.43-.43-1.01-.67-1.61-.67H4.86c-1.34,0-2.48.48-3.43,1.43-.95.95-1.43,2.1-1.43,3.43v34.03c0,1.34.48,2.48,1.43,3.43.95.95,2.1,1.43,3.43,1.43h34.03c1.34,0,2.48-.48,3.43-1.43s1.43-2.1,1.43-3.43V10.67c0-.6-.24-1.18-.67-1.61L34.7.67ZM36.62,38.89H7.14c-1.26,0-2.28-1.02-2.28-2.28V7.14c0-1.26,1.02-2.28,2.28-2.28h23.89c.6,0,1.18.24,1.61.67l5.6,5.6c.43.43.67,1.01.67,1.61v23.89c0,1.26-1.02,2.28-2.28,2.28Z"/>
      <path class="cls-1" d="M28.37,21.5c-2.03,0-3.75.71-5.17,2.13-1.42,1.42-2.13,3.14-2.13,5.17s.71,3.75,2.13,5.17c1.42,1.42,3.14,2.13,5.17,2.13s3.75-.71,5.17-2.13c1.42-1.42,2.13-3.14,2.13-5.17s-.71-3.75-2.13-5.17c-1.42-1.42-3.14-2.13-5.17-2.13Z"/>
      <rect class="cls-1" x="8.44" y="9.2" width="21.88" height="9.72" rx="2.6" ry="2.6"/>
    </g>
  </g>
</svg>