<?xml version="1.0" encoding="UTF-8"?>
<svg id="Layer_2" xmlns="http://www.w3.org/2000/svg" viewBox="0 0 22.27 22.27">
  <defs>
    <style>
      .cls-1 {
        fill: #93c740;
      }
    </style>
  </defs>
  <g id="Layer_1-2" data-name="Layer_1">
    <g>
      <path class="cls-1" d="M17.66.34c-.22-.22-.51-.34-.82-.34H2.47c-.68,0-1.26.24-1.75.73s-.73,1.07-.73,1.75v17.32c0,.68.24,1.26.73,1.75s1.07.73,1.75.73h17.32c.68,0,1.26-.24,1.75-.73s.73-1.07.73-1.75V5.43c0-.31-.12-.6-.34-.82L17.66.34ZM18.63,19.79H3.63c-.64,0-1.16-.52-1.16-1.16V3.63c0-.64.52-1.16,1.16-1.16h12.16c.31,0,.6.12.82.34l2.85,2.85c.22.22.34.51.34.82v12.16c0,.64-.52,1.16-1.16,1.16Z"/>
      <path class="cls-1" d="M14.44,10.94c-1.03,0-1.91.36-2.63,1.08-.72.72-1.08,1.6-1.08,2.63s.36,1.91,1.08,2.63,1.6,1.08,2.63,1.08,1.91-.36,2.63-1.08c.72-.72,1.08-1.6,1.08-2.63s-.36-1.91-1.08-2.63-1.6-1.08-2.63-1.08Z"/>
      <rect class="cls-1" x="4.29" y="4.68" width="11.13" height="4.95" rx="1.32" ry="1.32"/>
    </g>
  </g>
</svg>