<?xml version="1.0" encoding="UTF-8"?>
<svg id="Layer_2" xmlns="http://www.w3.org/2000/svg" viewBox="0 0 24.22 22.27">
  <defs>
    <style>
      .cls-1 {
        fill: #fff;
      }
    </style>
  </defs>
  <g id="Layer_1-2" data-name="Layer_1">
    <path class="cls-1" d="M23.68,19.91l-7.47-5.39s-.04-.02-.06-.04c1.17-1.52,1.87-3.42,1.87-5.48C18.01,4.04,13.97,0,9.01,0S0,4.04,0,9.01s4.04,9.01,9.01,9.01c1.99,0,3.83-.66,5.32-1.76.09.14.2.27.35.38l7.47,5.39c.23.17.5.25.76.25.4,0,.8-.19,1.06-.54.42-.58.29-1.4-.29-1.82ZM9.01,15.41c-3.53,0-6.4-2.87-6.4-6.4s2.87-6.4,6.4-6.4,6.4,2.87,6.4,6.4-2.87,6.4-6.4,6.4Z"/>
  </g>
</svg>