<?xml version="1.0" encoding="UTF-8"?>
<svg id="Layer_2" data-name="Layer 2" xmlns="http://www.w3.org/2000/svg" viewBox="0 0 28.5 26.2">
  <defs>
    <style>
      .cls-1 {
        fill: #fff;
      }

      .cls-2 {
        fill: #93c83d;
      }
    </style>
  </defs>
  <g id="Layer_1-2" data-name="Layer 1">
    <g>
      <circle class="cls-2" cx="10.6" cy="10.6" r="7.54"/>
      <path class="cls-1" d="M27.86,23.43l-8.79-6.34s-.05-.03-.08-.04c1.38-1.79,2.2-4.02,2.2-6.45C21.2,4.75,16.44,0,10.6,0S0,4.75,0,10.6s4.75,10.6,10.6,10.6c2.35,0,4.51-.78,6.27-2.07.1.17.24.32.41.44l8.79,6.34c.27.2.58.29.89.29.48,0,.94-.22,1.24-.64.5-.69.34-1.64-.35-2.14ZM10.6,18.13c-4.16,0-7.54-3.38-7.54-7.54s3.38-7.54,7.54-7.54,7.54,3.38,7.54,7.54-3.38,7.54-7.54,7.54Z"/>
    </g>
  </g>
</svg>