<?xml version="1.0" encoding="UTF-8"?>
<svg id="Layer_2" xmlns="http://www.w3.org/2000/svg" viewBox="0 0 19.02 26.72">
  <defs>
    <style>
      .cls-1 {
        fill: #94c940;
      }

      .cls-2 {
        fill: #fff;
      }
    </style>
  </defs>
  <g id="Layer_1-2" data-name="Layer_1">
    <g>
      <path class="cls-2" d="M17.8,10.03h-3.91c-.67,0-1.22.55-1.22,1.22h0c0,.67.55,1.22,1.22,1.22h2.69v11.81H2.44v-11.81h2.94c.67,0,1.22-.55,1.22-1.22h0c0-.67-.55-1.22-1.22-1.22H1.22c-.67,0-1.22.55-1.22,1.22v14.25c0,.67.55,1.22,1.22,1.22h16.58c.67,0,1.22-.55,1.22-1.22v-14.25c0-.67-.55-1.22-1.22-1.22Z"/>
      <path class="cls-1" d="M8.37.48L3.64,5.21c-.65.65-.65,1.69,0,2.34s1.69.65,2.34,0l2-2v11.11c0,.91.74,1.65,1.65,1.65s1.65-.74,1.65-1.65V5.54s2,2.01,2,2.01c.65.65,1.69.65,2.34,0,.32-.32.48-.75.48-1.17s-.16-.85-.48-1.17L10.9.48C10.56.13,10.09-.02,9.64,0c-.46-.03-.92.13-1.27.48Z"/>
    </g>
  </g>
</svg>