<?xml version="1.0" encoding="UTF-8"?>
<svg id="Layer_2" xmlns="http://www.w3.org/2000/svg" viewBox="0 0 32.71 22.16">
  <defs>
    <style>
      .cls-1 {
        fill: #fff;
      }
    </style>
  </defs>
  <g id="Layer_1-2" data-name="Layer_1">
    <g>
      <g>
        <path class="cls-1" d="M16.35,18.56c-7.36,0-11.85-5.47-13.25-7.47.71-1.01,2.21-2.91,4.47-4.54l-2.06-1.98C2.12,7.14.32,10.15.19,10.37c-.26.44-.26.99,0,1.43.23.39,5.74,9.59,16.16,9.59,2.09,0,3.98-.38,5.67-.98l-2.35-2.26c-1.04.25-2.14.4-3.33.4Z"/>
        <path class="cls-1" d="M32.51,11.8c.26-.44.26-.99,0-1.43-.23-.39-5.73-9.59-16.16-9.59-2.09,0-3.98.38-5.68.98l2.35,2.26c1.04-.25,2.14-.4,3.33-.4,7.36,0,11.85,5.47,13.25,7.47-.71,1.01-2.21,2.91-4.47,4.54l2.06,1.98c3.4-2.59,5.19-5.59,5.32-5.81Z"/>
        <path class="cls-1" d="M21.56,11.08c0-2.87-2.33-5.2-5.2-5.2-.42,0-.82.06-1.21.16l6.31,6.06c.07-.33.1-.67.1-1.01Z"/>
        <path class="cls-1" d="M11.15,11.08c0,2.87,2.33,5.2,5.2,5.2.42,0,.82-.06,1.21-.16l-6.31-6.06c-.07.33-.1.67-.1,1.01Z"/>
      </g>
      <path class="cls-1" d="M26.33,22.16c-.37,0-.75-.14-1.04-.42L5.34,2.58c-.6-.57-.62-1.52-.04-2.12.57-.6,1.52-.62,2.12-.04l19.96,19.16c.6.57.62,1.52.04,2.12-.29.31-.69.46-1.08.46Z"/>
    </g>
  </g>
</svg>