<?xml version="1.0" encoding="UTF-8"?>
<svg id="Layer_2" xmlns="http://www.w3.org/2000/svg" viewBox="0 0 32.71 20.62">
  <defs>
    <style>
      .cls-1 {
        fill: #fff;
      }
    </style>
  </defs>
  <g id="Layer_1-2" data-name="Layer_1">
    <g>
      <path class="cls-1" d="M16.35,20.62C5.93,20.62.42,11.42.19,11.02c-.26-.44-.26-.99,0-1.43C.42,9.2,5.93,0,16.35,0s15.93,9.2,16.16,9.59c.26.44.26.99,0,1.43-.23.39-5.74,9.59-16.16,9.59ZM3.11,10.31c1.4,2.01,5.89,7.47,13.25,7.47s11.85-5.47,13.25-7.47c-1.4-2.01-5.89-7.47-13.25-7.47S4.51,8.3,3.11,10.31Z"/>
      <path class="cls-1" d="M16.35,5.11c-2.87,0-5.2,2.33-5.2,5.2s2.33,5.2,5.2,5.2,5.2-2.33,5.2-5.2-2.33-5.2-5.2-5.2Z"/>
    </g>
  </g>
</svg>