<?xml version="1.0" encoding="UTF-8"?>
<svg id="Layer_2" data-name="Layer 2" xmlns="http://www.w3.org/2000/svg" xmlns:xlink="http://www.w3.org/1999/xlink" viewBox="0 0 214.3 38.65">
  <defs>
    <style>
      .cls-1 {
        fill: url(#New_Gradient_Swatch_copy_2);
        stroke: #939292;
        stroke-miterlimit: 10;
      }

      .cls-2 {
        fill: #fff;
        stroke-width: 0px;
      }
    </style>
    <linearGradient id="New_Gradient_Swatch_copy_2" data-name="New Gradient Swatch copy 2" x1="107.15" y1="38.15" x2="107.15" y2=".5" gradientUnits="userSpaceOnUse">
      <stop offset="0" stop-color="#e3efcf"/>
      <stop offset=".05" stop-color="#e5ceb1"/>
      <stop offset=".12" stop-color="#e7a38a"/>
      <stop offset=".19" stop-color="#ea8069"/>
      <stop offset=".27" stop-color="#eb6450"/>
      <stop offset=".34" stop-color="#ed503e"/>
      <stop offset=".41" stop-color="#ed4433"/>
      <stop offset=".49" stop-color="#ee4130"/>
      <stop offset=".61" stop-color="#ee4332"/>
      <stop offset=".69" stop-color="#ee4a3a"/>
      <stop offset=".75" stop-color="#f05748"/>
      <stop offset=".8" stop-color="#f16a5c"/>
      <stop offset=".85" stop-color="#f38276"/>
      <stop offset=".89" stop-color="#f69f96"/>
      <stop offset=".94" stop-color="#f9c2bc"/>
      <stop offset=".98" stop-color="#fde9e7"/>
      <stop offset=".99" stop-color="#fff"/>
    </linearGradient>
  </defs>
  <g id="Layer_1-2" data-name="Layer 1">
    <rect class="cls-1" x=".5" y=".5" width="213.3" height="37.65" rx="18.83" ry="18.83"/>
    <g>
      <path class="cls-2" d="M45.91,25c.71,0,1.29-.08,1.74-.24.84-.3,1.27-.86,1.27-1.68,0-.48-.21-.85-.63-1.11-.42-.25-1.08-.48-1.97-.68l-1.53-.34c-1.5-.34-2.54-.71-3.12-1.11-.97-.67-1.46-1.71-1.46-3.13,0-1.29.47-2.37,1.41-3.23s2.32-1.28,4.15-1.28c1.52,0,2.82.4,3.9,1.21,1.08.81,1.64,1.98,1.69,3.52h-2.9c-.05-.87-.43-1.49-1.14-1.85-.47-.24-1.06-.36-1.76-.36-.78,0-1.4.16-1.86.47-.46.31-.7.75-.7,1.31,0,.52.23.9.69,1.16.29.17.92.37,1.88.6l2.49.6c1.09.26,1.92.61,2.47,1.05.86.68,1.29,1.66,1.29,2.95s-.5,2.42-1.52,3.29c-1.01.87-2.44,1.31-4.28,1.31s-3.36-.43-4.44-1.29c-1.08-.86-1.62-2.04-1.62-3.54h2.88c.09.66.27,1.15.54,1.48.49.6,1.33.89,2.52.89Z"/>
      <path class="cls-2" d="M60.69,25.58s-.09.13-.2.29c-.1.16-.23.31-.37.43-.44.39-.86.66-1.27.8-.41.14-.89.22-1.44.22-1.58,0-2.65-.57-3.2-1.71-.31-.63-.46-1.55-.46-2.78v-6.44h2.86v6.44c0,.61.07,1.07.22,1.37.25.54.76.81,1.5.81.95,0,1.61-.39,1.96-1.16.18-.42.27-.97.27-1.66v-5.82h2.83v10.69h-2.72v-1.51Z"/>
      <path class="cls-2" d="M71.9,27.37c-.88,0-1.59-.18-2.13-.53-.32-.21-.67-.58-1.04-1.1v1.34h-2.74v-14.44h2.79v5.14c.35-.5.74-.88,1.17-1.14.5-.33,1.14-.49,1.92-.49,1.41,0,2.51.51,3.3,1.52.79,1.01,1.19,2.32,1.19,3.92s-.39,3.04-1.18,4.13c-.78,1.09-1.88,1.64-3.29,1.64ZM73.43,21.9c0-.76-.1-1.39-.29-1.88-.37-.94-1.06-1.41-2.06-1.41s-1.71.46-2.09,1.38c-.2.49-.29,1.12-.29,1.9,0,.92.2,1.67.61,2.28.41.6,1.02.9,1.85.9.72,0,1.28-.29,1.68-.87.4-.58.6-1.35.6-2.29Z"/>
      <path class="cls-2" d="M84.37,19.34c-.24-.52-.7-.77-1.38-.77-.8,0-1.33.26-1.61.77-.15.29-.23.73-.23,1.31v6.43h-2.83v-10.67h2.72v1.56c.35-.56.67-.95.98-1.19.54-.42,1.25-.63,2.11-.63.82,0,1.48.18,1.98.54.41.33.71.76.92,1.28.37-.63.82-1.09,1.36-1.38.58-.29,1.22-.44,1.92-.44.47,0,.94.09,1.39.27.46.18.87.5,1.25.96.3.37.5.83.61,1.37.07.36.1.89.1,1.58l-.02,6.74h-2.86v-6.81c0-.41-.07-.74-.2-1-.25-.5-.71-.75-1.37-.75-.77,0-1.3.32-1.6.96-.15.34-.23.75-.23,1.23v6.36h-2.81v-6.36c0-.63-.07-1.09-.2-1.38Z"/>
      <path class="cls-2" d="M99.1,12.54v2.58h-2.83v-2.58h2.83ZM99.1,16.4v10.69h-2.83v-10.69h2.83Z"/>
      <path class="cls-2" d="M106.7,25.1v2.09l-1.32.05c-1.32.05-2.22-.18-2.71-.69-.31-.32-.47-.81-.47-1.48v-6.58h-1.49v-1.99h1.49v-2.98h2.77v2.98h1.74v1.99h-1.74v5.65c0,.44.06.71.17.82.11.11.45.16,1.02.16.08,0,.17,0,.27,0s.19,0,.28-.01Z"/>
      <path class="cls-2" d="M120.44,21.42h-3.12v5.67h-2.95v-14.46h7.09c1.01.02,1.79.14,2.34.37s1.01.57,1.39,1.01c.31.37.56.77.75,1.22.18.44.27.95.27,1.52,0,.69-.17,1.36-.52,2.02-.35.66-.92,1.13-1.72,1.41.67.27,1.14.65,1.42,1.14.28.49.42,1.25.42,2.26v.97c0,.66.03,1.11.08,1.34.08.37.26.65.55.82v.36h-3.32c-.09-.32-.16-.58-.2-.77-.08-.41-.12-.82-.13-1.25l-.02-1.34c-.01-.92-.18-1.54-.5-1.84-.32-.31-.93-.46-1.82-.46ZM122.27,18.79c.6-.27.9-.82.9-1.63,0-.88-.29-1.46-.87-1.77-.33-.17-.82-.25-1.47-.25h-3.51v3.88h3.42c.68,0,1.19-.08,1.53-.24Z"/>
      <path class="cls-2" d="M137.73,23.95c-.07.63-.4,1.28-.99,1.93-.92,1.04-2.2,1.56-3.84,1.56-1.36,0-2.56-.44-3.6-1.31s-1.56-2.3-1.56-4.28c0-1.85.47-3.27,1.41-4.26.94-.99,2.16-1.48,3.65-1.48.89,0,1.69.17,2.4.5s1.3.86,1.77,1.58c.42.63.69,1.37.81,2.21.07.49.1,1.2.09,2.12h-7.32c.04,1.07.38,1.82,1.01,2.26.39.27.85.4,1.39.4.58,0,1.04-.16,1.4-.49.2-.18.37-.42.52-.74h2.85ZM134.96,20.67c-.05-.74-.27-1.3-.67-1.68-.4-.38-.9-.57-1.5-.57-.65,0-1.15.2-1.51.61-.36.41-.58.95-.67,1.65h4.34Z"/>
      <path class="cls-2" d="M138.7,16.4h3.14l2.23,7.88,2.28-7.88h3l-3.85,10.69h-2.95l-3.83-10.69Z"/>
      <path class="cls-2" d="M153.79,12.54v2.58h-2.83v-2.58h2.83ZM153.79,16.4v10.69h-2.83v-10.69h2.83Z"/>
      <path class="cls-2" d="M165.65,23.95c-.07.63-.4,1.28-.99,1.93-.92,1.04-2.2,1.56-3.84,1.56-1.36,0-2.56-.44-3.6-1.31s-1.56-2.3-1.56-4.28c0-1.85.47-3.27,1.41-4.26.94-.99,2.16-1.48,3.65-1.48.89,0,1.69.17,2.4.5s1.3.86,1.77,1.58c.42.63.69,1.37.81,2.21.07.49.1,1.2.09,2.12h-7.32c.04,1.07.38,1.82,1.01,2.26.39.27.85.4,1.39.4.58,0,1.04-.16,1.4-.49.2-.18.37-.42.52-.74h2.85ZM162.88,20.67c-.05-.74-.27-1.3-.67-1.68-.4-.38-.9-.57-1.5-.57-.65,0-1.15.2-1.51.61-.36.41-.58.95-.67,1.65h4.34Z"/>
      <path class="cls-2" d="M175.78,27.09l-1.68-7.79-1.7,7.79h-2.9l-3-10.69h3l1.67,7.67,1.54-7.67h2.83l1.63,7.7,1.67-7.7h2.91l-3.1,10.69h-2.87Z"/>
    </g>
  </g>
</svg>