<?xml version="1.0" encoding="UTF-8"?>
<svg id="Layer_2" data-name="Layer 2" xmlns="http://www.w3.org/2000/svg" viewBox="0 0 87.54 69.58">
  <defs>
    <style>
      .cls-1 {
        fill: #fff;
      }

      .cls-2 {
        fill: #93c83d;
      }
    </style>
  </defs>
  <g id="Layer_1-2" data-name="Layer 1">
    <g>
      <path class="cls-1" d="M67.89,42.45c-3.79,0-6.88-3.09-6.88-6.88v-9.04h-9.04c-3.79,0-6.88-3.09-6.88-6.88s3.09-6.88,6.88-6.88h.39L41.43,0,0,48.41h15.99v21.17h50.89v-21.17h15.99l-8.66-10.12c-1.06,2.44-3.49,4.16-6.31,4.16ZM40.86,32.73c4.55,0,8.25,3.69,8.25,8.25s-3.69,8.25-8.25,8.25-8.25-3.69-8.25-8.25,3.69-8.25,8.25-8.25ZM56.4,65.79h-31.05c0-8.58,6.95-15.53,15.53-15.53s15.53,6.95,15.53,15.53h0Z"/>
      <path class="cls-2" d="M83.81,15.92h-12.2V3.72c0-2.06-1.67-3.72-3.72-3.72s-3.73,1.67-3.73,3.72v12.2h-12.2c-2.06,0-3.72,1.67-3.72,3.72s1.67,3.72,3.72,3.72h12.2v12.2c0,2.06,1.67,3.73,3.73,3.73s3.72-1.67,3.72-3.73v-12.2h12.2c2.06,0,3.72-1.67,3.72-3.72s-1.67-3.72-3.72-3.72Z"/>
    </g>
  </g>
</svg>