<?xml version="1.0" encoding="UTF-8"?>
<svg id="Layer_2" data-name="Layer 2" xmlns="http://www.w3.org/2000/svg" viewBox="0 0 429.9 77.15">
  <defs>
    <style>
      .cls-1 {
        fill: #fff;
      }
    </style>
  </defs>
  <g id="Layer_1-2" data-name="Layer 1">
    <g>
      <path class="cls-1" d="M384.57,28.81c-1.5-1.26-3.25-1.89-5.24-1.89-3.03,0-5.26,1.15-6.67,3.44-1.42,2.29-2.13,5.14-2.13,8.53,0,3.66.73,6.58,2.18,8.77,1.43,2.21,3.61,3.31,6.55,3.31s5.17-1.09,6.69-3.27c1.53-2.18,2.29-5.01,2.29-8.48,0-4.85-1.22-8.32-3.67-10.4Z"/>
      <path class="cls-1" d="M284.21,49.95c2.42,0,4.47-.92,6.15-2.75,1.67-1.83,2.51-4.75,2.51-8.75,0-3.76-.79-6.62-2.38-8.58-1.59-1.96-3.72-2.95-6.38-2.95-3.64,0-6.15,1.71-7.53,5.13-.73,1.82-1.09,4.06-1.09,6.73,0,2.3.39,4.35,1.16,6.15,1.41,3.35,3.93,5.02,7.57,5.02Z"/>
      <path class="cls-1" d="M429.66,18.03C425.86,0,379.08-5.41,325.17,5.93c-15.1,3.18-29.16,7.34-41.49,12.07,1.15.14,2.21.39,3.15.78,2.52,1.04,4.56,2.96,6.11,5.75v-5.71h10.08v37.61c0,5.12-.86,8.97-2.58,11.57-2.96,4.46-8.63,6.69-17.02,6.69-5.07,0-9.2-.99-12.4-2.98-3.2-1.99-4.97-4.96-5.31-8.91h11.28c.29,1.21.76,2.09,1.42,2.62,1.12.95,2.99,1.42,5.64,1.42,3.73,0,6.23-1.25,7.49-3.75.82-1.6,1.24-4.29,1.24-8.08v-2.55c-.99,1.7-2.06,2.97-3.2,3.82-2.06,1.58-4.74,2.36-8.04,2.36-5.09,0-9.16-1.79-12.2-5.37-3.04-3.58-4.57-8.42-4.57-14.53,0-5.66,1.37-10.44,4.07-14.36-10.74,5.16-19.45,10.73-25.46,16.3-.4-.59-.86-1.16-1.4-1.68-2.06-1.96-5.15-3.43-9.28-4.4-6.18-1.36-9.78-2.32-10.8-2.87-1.02-.53-1.53-1.39-1.53-2.58,0-.95.48-1.77,1.44-2.47s2.56-1.05,4.82-1.05c2.74,0,4.68.7,5.82,2.11.61.78.98,1.83,1.13,3.16h10.37c-.46-4.85-2.24-8.27-5.35-10.26-3.13-1.96-7.17-2.95-12.11-2.95-5.21,0-9.26,1.32-12.13,3.95-2.87,2.63-4.31,5.78-4.31,9.44,0,3.1.92,5.48,2.76,7.13,1.84,1.67,5.01,3.07,9.49,4.18,6.23,1.48,9.83,2.52,10.8,3.13.97.61,1.46,1.49,1.46,2.66s-.6,2.12-1.8,2.73c-1.2.61-2.82.91-4.86.91-3.47,0-5.84-.69-7.13-2.07-.73-.78-1.2-2.09-1.42-3.93h-10.51c0,4.07,1.49,7.43,4.46,10.06,2.97,2.63,7.57,3.95,13.8,3.95,2.77,0,5.2-.27,7.32-.78,0,.03,0,.06.02.09,3.79,18.03,50.57,23.45,104.49,12.1,14.9-3.14,28.77-7.23,40.98-11.88-1.11.23-2.31.36-3.62.36-4.63,0-8.53-1.87-11.69-5.62-3.16-3.75-4.75-8.55-4.75-14.42,0-6.77,1.56-12.09,4.67-15.97,3.12-3.88,7.28-5.82,12.49-5.82,2.4,0,4.53.53,6.4,1.58,1.87,1.05,3.38,2.52,4.55,4.38V4.92h10.51v46.27c21.02-10.67,33.36-22.85,31.19-33.15ZM335.61,28.56c-.65-.07-1.24-.12-1.75-.15-.51-.02-.92-.04-1.24-.04-4.17,0-6.97,1.36-8.4,4.07-.8,1.53-1.2,3.88-1.2,7.06v18.95h-10.44V18.81h9.89v6.91c1.6-2.64,2.99-4.45,4.18-5.42,1.94-1.62,4.46-2.44,7.57-2.44.19,0,.36,0,.49.02.13.01.43.03.89.05v10.62ZM352.34,58.46h-10.51V18.81h10.51v39.65ZM352.34,14.08h-10.51V4.52h10.51v9.57Z"/>
      <path class="cls-1" d="M21.64,17.87c-3.1,0-5.63.81-7.57,2.44-1.19.97-2.58,2.78-4.18,5.42v-6.91H0v39.65h10.44v-18.95c0-3.18.4-5.53,1.2-7.06,1.43-2.72,4.23-4.07,8.4-4.07.32,0,.73.01,1.24.04.51.02,1.09.07,1.75.15v-10.62c-.46-.02-.76-.04-.89-.05s-.3-.02-.49-.02Z"/>
      <path class="cls-1" d="M60.2,25.47c-1.72-2.67-3.9-4.62-6.55-5.86-2.64-1.24-5.61-1.86-8.91-1.86-5.55,0-10.07,1.83-13.55,5.49-3.48,3.66-5.22,8.92-5.22,15.79,0,7.32,1.93,12.61,5.78,15.86,3.86,3.25,8.31,4.87,13.35,4.87,6.11,0,10.86-1.93,14.26-5.78,2.18-2.43,3.41-4.81,3.67-7.17h-10.59c-.56,1.16-1.2,2.07-1.93,2.73-1.33,1.21-3.07,1.82-5.2,1.82-2.01,0-3.73-.5-5.17-1.49-2.35-1.6-3.6-4.39-3.75-8.37h27.14c.05-3.42-.06-6.04-.33-7.86-.46-3.1-1.47-5.83-3.02-8.18ZM36.67,34.67c.34-2.57,1.17-4.61,2.49-6.11,1.32-1.5,3.18-2.26,5.58-2.26,2.21,0,4.06.71,5.55,2.13,1.49,1.42,2.32,3.5,2.49,6.24h-16.11Z"/>
      <path class="cls-1" d="M102.56,21.08c-2.61-2.15-5.96-3.22-10.06-3.22-3.27,0-5.98.8-8.11,2.4-1.19.9-2.45,2.36-3.78,4.4v-5.78h-10v39.58h10.33v-21.46c0-2.45.34-4.46,1.02-6.04,1.31-2.98,3.72-4.47,7.24-4.47,2.86,0,4.8,1.02,5.82,3.06.56,1.12.84,2.72.84,4.8v24.12h10.62v-26.7c0-4.97-1.3-8.53-3.91-10.68Z"/>
      <path class="cls-1" d="M127.75,8.12h-10.26v11.06h-5.53v7.38h5.53v24.41c0,2.47.58,4.3,1.75,5.49,1.79,1.87,5.14,2.72,10.04,2.55l4.91-.18v-7.75c-.34.02-.69.04-1.04.05-.35.01-.69.02-1,.02-2.11,0-3.37-.2-3.78-.6-.41-.4-.62-1.41-.62-3.04v-20.95h6.44v-7.38h-6.44v-11.06Z"/>
      <path class="cls-1" d="M171.94,25.47c-1.72-2.67-3.9-4.62-6.55-5.86-2.64-1.24-5.61-1.86-8.91-1.86-5.55,0-10.07,1.83-13.55,5.49-3.48,3.66-5.22,8.92-5.22,15.79,0,7.32,1.93,12.61,5.78,15.86,3.86,3.25,8.31,4.87,13.35,4.87,6.11,0,10.86-1.93,14.26-5.78,2.18-2.43,3.41-4.81,3.67-7.17h-10.59c-.56,1.16-1.2,2.07-1.93,2.73-1.33,1.21-3.07,1.82-5.2,1.82-2.01,0-3.73-.5-5.17-1.49-2.35-1.6-3.6-4.39-3.75-8.37h27.14c.05-3.42-.06-6.04-.33-7.86-.46-3.1-1.47-5.83-3.02-8.18ZM148.41,34.67c.34-2.57,1.17-4.61,2.49-6.11,1.32-1.5,3.18-2.26,5.58-2.26,2.21,0,4.06.71,5.55,2.13,1.49,1.42,2.32,3.5,2.49,6.24h-16.11Z"/>
      <path class="cls-1" d="M203.81,17.87c-3.1,0-5.63.81-7.57,2.44-1.19.97-2.58,2.78-4.18,5.42v-6.91h-9.89v39.65h10.44v-18.95c0-3.18.4-5.53,1.2-7.06,1.43-2.72,4.23-4.07,8.4-4.07.32,0,.73.01,1.24.04.51.02,1.09.07,1.75.15v-10.62c-.46-.02-.76-.04-.89-.05-.13-.01-.3-.02-.49-.02Z"/>
    </g>
  </g>
</svg>