<?xml version="1.0" encoding="UTF-8"?>
<svg id="Layer_2" data-name="Layer 2" xmlns="http://www.w3.org/2000/svg" viewBox="0 0 84.71 21.5">
  <defs>
    <style>
      .cls-1 {
        fill: #95c941;
        stroke-width: 0px;
      }
    </style>
  </defs>
  <g id="Layer_1-2" data-name="Layer 1">
    <g>
      <path class="cls-1" d="M7.2,11.53c.76-.1,1.3-.21,1.62-.36.58-.25.88-.63.88-1.15,0-.64-.22-1.08-.67-1.32-.45-.24-1.1-.36-1.97-.36-.97,0-1.66.24-2.06.71-.29.35-.48.83-.58,1.42H.5c.09-1.36.47-2.47,1.14-3.35,1.08-1.37,2.93-2.05,5.55-2.05,1.71,0,3.22.34,4.55,1.01,1.33.67,1.99,1.95,1.99,3.82v7.12c0,.49,0,1.09.03,1.8.03.53.11.89.24,1.08.13.19.33.35.6.47v.6h-4.42c-.12-.31-.21-.61-.26-.88-.05-.27-.09-.59-.11-.94-.56.61-1.21,1.13-1.95,1.55-.88.5-1.87.76-2.98.76-1.41,0-2.58-.4-3.5-1.2-.92-.8-1.38-1.94-1.38-3.41,0-1.91.74-3.29,2.22-4.15.81-.47,2.01-.8,3.59-1l1.39-.17ZM9.69,13.42c-.26.16-.52.29-.79.39s-.63.19-1.09.28l-.92.17c-.87.15-1.49.34-1.87.56-.64.37-.96.95-.96,1.72,0,.69.2,1.19.59,1.5.39.31.87.46,1.42.46.89,0,1.7-.26,2.45-.77.75-.51,1.14-1.45,1.16-2.81v-1.51Z"/>
      <path class="cls-1" d="M30.54,7.31c1.16,1.47,1.74,3.37,1.74,5.7s-.57,4.41-1.72,6c-1.15,1.59-2.74,2.38-4.8,2.38-1.29,0-2.32-.26-3.11-.77-.47-.3-.97-.84-1.52-1.6v1.95h-4V0h4.06v7.47c.52-.72,1.08-1.27,1.71-1.65.74-.47,1.67-.71,2.81-.71,2.05,0,3.66.74,4.82,2.21ZM27.15,16.77c.58-.85.88-1.96.88-3.33,0-1.1-.14-2.01-.43-2.74-.55-1.37-1.55-2.05-3.02-2.05s-2.5.67-3.06,2.01c-.29.71-.43,1.63-.43,2.76,0,1.33.3,2.43.89,3.31s1.5,1.31,2.71,1.31c1.05,0,1.87-.42,2.46-1.27Z"/>
      <path class="cls-1" d="M48.05,19.07c-1.31,1.62-3.3,2.43-5.97,2.43s-4.66-.81-5.97-2.43c-1.31-1.62-1.97-3.57-1.97-5.84s.66-4.18,1.97-5.82c1.31-1.64,3.3-2.46,5.97-2.46s4.66.82,5.97,2.46,1.97,3.58,1.97,5.82-.66,4.23-1.97,5.84ZM44.8,16.83c.64-.84.95-2.04.95-3.6s-.32-2.75-.95-3.59c-.64-.84-1.55-1.26-2.74-1.26s-2.1.42-2.74,1.26c-.64.84-.96,2.04-.96,3.59s.32,2.76.96,3.6,1.55,1.27,2.74,1.27,2.1-.42,2.74-1.27Z"/>
      <path class="cls-1" d="M56.97,5.44v9.36c0,.88.1,1.55.31,1.99.37.79,1.09,1.18,2.17,1.18,1.38,0,2.32-.56,2.84-1.68.26-.61.4-1.41.4-2.41V5.44h4.12v15.53h-3.95v-2.19s-.13.19-.28.43c-.15.24-.33.45-.54.63-.63.57-1.25.96-1.84,1.17-.59.21-1.29.31-2.08.31-2.29,0-3.84-.83-4.63-2.48-.44-.91-.67-2.26-.67-4.03V5.44h4.16Z"/>
      <path class="cls-1" d="M69.15,8.48v-2.89h2.17V1.25h4.02v4.33h2.52v2.89h-2.52v8.21c0,.64.08,1.03.24,1.19s.66.23,1.48.23c.12,0,.25,0,.39,0,.14,0,.27-.01.41-.02v3.03l-1.92.07c-1.92.07-3.23-.27-3.93-1-.46-.46-.68-1.18-.68-2.15v-9.56h-2.17Z"/>
      <path class="cls-1" d="M80.39,16.71h4.32v4.26h-4.32v-4.26Z"/>
    </g>
  </g>
</svg>