<?xml version="1.0" encoding="UTF-8"?>
<svg id="Layer_2" data-name="Layer 2" xmlns="http://www.w3.org/2000/svg" viewBox="0 0 112.28 21.45">
  <defs>
    <style>
      .cls-1 {
        fill: #95c941;
        stroke-width: 0px;
      }
    </style>
  </defs>
  <g id="Layer_1-2" data-name="Layer 1">
    <g>
      <path class="cls-1" d="M7.2,11.48c.76-.09,1.3-.21,1.62-.36.58-.25.88-.63.88-1.15,0-.64-.22-1.08-.67-1.32-.45-.24-1.1-.36-1.97-.36-.97,0-1.66.24-2.06.71-.29.35-.48.83-.58,1.42H.5c.09-1.36.47-2.47,1.14-3.35,1.08-1.37,2.93-2.05,5.55-2.05,1.71,0,3.22.34,4.55,1.01,1.33.67,1.99,1.95,1.99,3.82v7.12c0,.49,0,1.09.03,1.79.03.53.11.89.24,1.08.13.19.33.35.6.47v.6h-4.42c-.12-.31-.21-.61-.26-.88-.05-.28-.09-.59-.11-.94-.56.61-1.21,1.13-1.95,1.55-.88.5-1.87.76-2.98.76-1.41,0-2.58-.4-3.5-1.2-.92-.8-1.38-1.94-1.38-3.41,0-1.91.74-3.29,2.22-4.15.81-.46,2.01-.8,3.59-1l1.39-.17ZM9.69,13.38c-.26.16-.52.29-.79.39s-.63.19-1.09.28l-.92.17c-.87.15-1.49.34-1.87.56-.64.37-.96.94-.96,1.72,0,.69.2,1.19.59,1.5.39.31.87.46,1.42.46.89,0,1.7-.26,2.45-.77.75-.51,1.14-1.45,1.16-2.81v-1.51Z"/>
      <path class="cls-1" d="M21.33,5.4v9.36c0,.88.1,1.55.31,1.99.37.79,1.09,1.18,2.17,1.18,1.38,0,2.32-.56,2.84-1.68.26-.61.4-1.41.4-2.41V5.4h4.12v15.53h-3.95v-2.19s-.13.19-.28.43c-.15.24-.33.45-.54.63-.63.57-1.25.96-1.84,1.17-.59.21-1.29.31-2.08.31-2.29,0-3.84-.83-4.63-2.48-.45-.91-.67-2.26-.67-4.03V5.4h4.16Z"/>
      <path class="cls-1" d="M33.51,8.43v-2.89h2.17V1.21h4.02v4.33h2.52v2.89h-2.52v8.21c0,.64.08,1.03.24,1.19s.66.24,1.48.24c.12,0,.25,0,.39,0,.14,0,.27-.01.41-.02v3.03l-1.92.07c-1.92.07-3.23-.27-3.93-1-.46-.47-.68-1.18-.68-2.15v-9.56h-2.17Z"/>
      <path class="cls-1" d="M55.98,5.49c.78.33,1.42.84,1.92,1.53.43.58.69,1.18.78,1.79.09.61.14,1.61.14,3v9.13h-4.15v-9.46c0-.84-.14-1.51-.42-2.03-.37-.72-1.07-1.08-2.09-1.08s-1.87.36-2.43,1.08c-.55.72-.83,1.74-.83,3.07v8.41h-4.06V0h4.06v7.41c.59-.9,1.26-1.53,2.04-1.89.77-.36,1.58-.53,2.43-.53.95,0,1.82.17,2.6.5Z"/>
      <path class="cls-1" d="M75.59,19.03c-1.31,1.62-3.3,2.43-5.97,2.43s-4.66-.81-5.97-2.43-1.97-3.57-1.97-5.84.66-4.18,1.97-5.82,3.3-2.46,5.97-2.46,4.66.82,5.97,2.46,1.97,3.58,1.97,5.82-.66,4.23-1.97,5.84ZM72.34,16.78c.64-.84.95-2.04.95-3.6s-.32-2.75-.95-3.59c-.64-.84-1.55-1.26-2.74-1.26s-2.1.42-2.74,1.26c-.64.84-.96,2.04-.96,3.59s.32,2.76.96,3.6,1.55,1.27,2.74,1.27,2.1-.42,2.74-1.27Z"/>
      <path class="cls-1" d="M89.09,5.04c.05,0,.17.01.35.02v4.16c-.26-.03-.48-.05-.68-.06-.2,0-.36-.01-.48-.01-1.63,0-2.73.53-3.29,1.6-.31.6-.47,1.52-.47,2.76v7.42h-4.09V5.4h3.88v2.71c.63-1.04,1.17-1.74,1.64-2.12.76-.64,1.75-.95,2.96-.95.08,0,.14,0,.19,0Z"/>
      <path class="cls-1" d="M94.96,15.97c.09.72.27,1.23.56,1.54.51.54,1.44.81,2.81.81.8,0,1.44-.12,1.91-.36.47-.24.71-.59.71-1.07s-.19-.8-.57-1.04c-.38-.24-1.8-.65-4.25-1.23-1.76-.44-3.01-.98-3.73-1.64-.72-.65-1.08-1.58-1.08-2.79,0-1.43.56-2.67,1.69-3.7,1.13-1.03,2.71-1.55,4.76-1.55s3.52.39,4.75,1.16c1.22.77,1.92,2.11,2.11,4.01h-4.06c-.06-.52-.2-.94-.44-1.24-.45-.55-1.21-.83-2.29-.83-.89,0-1.52.14-1.89.41s-.56.6-.56.97c0,.46.2.8.6,1.01.4.22,1.81.59,4.24,1.13,1.62.38,2.83.95,3.64,1.72.8.78,1.2,1.75,1.2,2.92,0,1.54-.57,2.79-1.72,3.77s-2.92,1.46-5.32,1.46-4.25-.52-5.42-1.55c-1.17-1.03-1.75-2.34-1.75-3.94h4.12Z"/>
      <path class="cls-1" d="M107.97,16.67h4.32v4.26h-4.32v-4.26Z"/>
    </g>
  </g>
</svg>