<?xml version="1.0" encoding="UTF-8"?>
<svg id="Layer_2" data-name="Layer 2" xmlns="http://www.w3.org/2000/svg" viewBox="0 0 83.65 27.57">
  <defs>
    <style>
      .cls-1 {
        fill: #95c941;
        stroke-width: 0px;
      }
    </style>
  </defs>
  <g id="Layer_1-2" data-name="Layer 1">
    <g>
      <path class="cls-1" d="M8.02.02c.21.01.49.04.85.06v3.3c-.23-.03-.61-.05-1.15-.06-.54-.01-.91.1-1.11.36-.2.25-.31.53-.31.83v1.31h2.66v2.86h-2.66v12.52H2.28v-12.52H0v-2.86h2.22v-1c0-1.66.28-2.81.84-3.43.59-.93,2.01-1.4,4.26-1.4.26,0,.49,0,.7.02Z"/>
      <path class="cls-1" d="M15.49,3.83h-4.12V.09h4.12v3.75ZM11.37,5.68h4.12v15.53h-4.12V5.68Z"/>
      <path class="cls-1" d="M27.1,5.67c.99.41,1.78,1.16,2.39,2.25v-2.24h3.96v14.73c0,2-.34,3.51-1.01,4.53-1.16,1.75-3.38,2.62-6.67,2.62-1.98,0-3.6-.39-4.86-1.17-1.25-.78-1.95-1.94-2.08-3.49h4.42c.11.47.3.82.56,1.03.44.37,1.17.56,2.21.56,1.46,0,2.44-.49,2.93-1.47.32-.63.48-1.68.48-3.16v-1c-.39.67-.81,1.16-1.25,1.5-.81.62-1.86.93-3.15.93-1.99,0-3.59-.7-4.78-2.1s-1.79-3.3-1.79-5.69.57-4.25,1.72-5.82c1.15-1.57,2.77-2.36,4.88-2.36.78,0,1.46.12,2.03.36ZM28.48,16.8c.65-.72.98-1.86.98-3.43,0-1.47-.31-2.59-.93-3.36-.62-.77-1.45-1.15-2.49-1.15-1.42,0-2.4.67-2.94,2.01-.28.71-.43,1.59-.43,2.64,0,.9.15,1.7.45,2.41.55,1.31,1.53,1.97,2.95,1.97.95,0,1.74-.36,2.4-1.08Z"/>
      <path class="cls-1" d="M56.61,5.74c.66.27,1.27.73,1.81,1.4.44.54.73,1.21.88,1.99.09.52.14,1.29.14,2.29l-.03,9.79h-4.16v-9.89c0-.59-.1-1.07-.29-1.45-.36-.72-1.03-1.08-1.99-1.08-1.12,0-1.89.47-2.32,1.4-.22.49-.33,1.09-.33,1.78v9.25h-4.09v-9.25c0-.92-.1-1.59-.28-2.01-.34-.75-1.01-1.13-2.01-1.13-1.16,0-1.94.38-2.34,1.13-.22.43-.33,1.06-.33,1.91v9.34h-4.12V5.71h3.95v2.27c.5-.81.98-1.38,1.42-1.72.79-.61,1.81-.91,3.06-.91,1.19,0,2.15.26,2.88.78.59.48,1.04,1.11,1.34,1.87.53-.91,1.19-1.58,1.98-2.01.84-.43,1.77-.64,2.79-.64.68,0,1.36.13,2.02.4Z"/>
      <path class="cls-1" d="M69.33,11.77c.76-.09,1.3-.21,1.62-.36.58-.25.88-.63.88-1.15,0-.64-.22-1.08-.67-1.32-.45-.24-1.1-.36-1.97-.36-.97,0-1.66.24-2.06.71-.29.35-.48.83-.58,1.42h-3.92c.09-1.36.47-2.47,1.14-3.35,1.08-1.37,2.93-2.05,5.55-2.05,1.71,0,3.22.34,4.55,1.01,1.33.67,1.99,1.95,1.99,3.82v7.12c0,.49,0,1.09.03,1.8.03.53.11.89.24,1.08.13.19.33.35.6.47v.6h-4.42c-.12-.31-.21-.61-.26-.88-.05-.28-.09-.59-.11-.94-.56.61-1.21,1.13-1.95,1.55-.88.5-1.87.75-2.98.75-1.41,0-2.58-.4-3.5-1.2-.92-.8-1.38-1.94-1.38-3.41,0-1.91.74-3.29,2.22-4.15.81-.46,2.01-.8,3.59-1l1.39-.17ZM71.81,13.66c-.26.16-.52.29-.79.39-.26.1-.63.19-1.09.28l-.92.17c-.87.15-1.49.34-1.87.56-.64.37-.96.94-.96,1.72,0,.69.2,1.19.59,1.5.39.31.87.46,1.42.46.89,0,1.7-.26,2.45-.77.75-.51,1.14-1.45,1.16-2.81v-1.51Z"/>
      <path class="cls-1" d="M79.33,16.95h4.32v4.26h-4.32v-4.26Z"/>
    </g>
  </g>
</svg>