<?xml version="1.0" encoding="UTF-8"?>
<svg id="Layer_2" data-name="Layer 2" xmlns="http://www.w3.org/2000/svg" viewBox="0 0 392.34 68.33">
  <defs>
    <style>
      .cls-1 {
        fill: #95c941;
        stroke-width: 0px;
      }
    </style>
  </defs>
  <g id="Layer_1-2" data-name="Layer 1">
    <g>
      <g>
        <path class="cls-1" d="M361.52,31.53c-1.02-.86-2.21-1.29-3.56-1.29-2.06,0-3.57.78-4.54,2.34-.96,1.56-1.45,3.49-1.45,5.8,0,2.49.49,4.48,1.48,5.96.97,1.5,2.46,2.25,4.45,2.25s3.51-.74,4.55-2.23c1.04-1.48,1.56-3.4,1.56-5.76,0-3.3-.83-5.65-2.5-7.07Z"/>
        <path class="cls-1" d="M293.29,45.9c1.65,0,3.04-.62,4.18-1.87,1.14-1.24,1.71-3.23,1.71-5.95,0-2.56-.54-4.5-1.62-5.84-1.08-1.34-2.53-2-4.34-2-2.47,0-4.18,1.16-5.12,3.49-.49,1.24-.74,2.76-.74,4.58,0,1.57.26,2.96.79,4.18.96,2.28,2.67,3.41,5.14,3.41Z"/>
        <path class="cls-1" d="M392.18,24.2c-2.58-12.26-34.38-15.94-71.04-8.23-10.27,2.16-19.82,4.99-28.21,8.2.78.1,1.5.26,2.14.53,1.71.71,3.1,2.01,4.15,3.91v-3.88h6.85v25.57c0,3.48-.59,6.1-1.76,7.86-2.01,3.03-5.87,4.55-11.57,4.55-3.45,0-6.26-.68-8.43-2.03-2.18-1.35-3.38-3.37-3.61-6.06h7.67c.2.82.52,1.42.96,1.78.76.64,2.04.96,3.83.96,2.54,0,4.24-.85,5.09-2.55.56-1.09.84-2.92.84-5.49v-1.73c-.68,1.15-1.4,2.02-2.18,2.6-1.4,1.07-3.22,1.61-5.47,1.61-3.46,0-6.23-1.22-8.3-3.65-2.07-2.43-3.1-5.72-3.1-9.88,0-3.85.93-7.1,2.77-9.77-7.3,3.51-13.23,7.29-17.31,11.08-.27-.4-.58-.79-.95-1.14-1.4-1.34-3.5-2.33-6.31-2.99-4.2-.92-6.65-1.57-7.34-1.95-.69-.36-1.04-.95-1.04-1.76,0-.64.33-1.2.98-1.68s1.74-.72,3.28-.72c1.86,0,3.18.48,3.96,1.43.41.53.67,1.24.77,2.15h7.05c-.31-3.3-1.53-5.62-3.64-6.97-2.13-1.34-4.87-2-8.23-2-3.54,0-6.29.89-8.25,2.68-1.95,1.79-2.93,3.93-2.93,6.42,0,2.11.63,3.73,1.88,4.85,1.25,1.14,3.4,2.09,6.45,2.84,4.24,1.01,6.69,1.71,7.34,2.13.66.41.99,1.01.99,1.81s-.41,1.44-1.22,1.85c-.82.41-1.92.62-3.3.62-2.36,0-3.97-.47-4.85-1.41-.49-.53-.82-1.42-.96-2.67h-7.15c0,2.77,1.01,5.05,3.03,6.84,2.02,1.79,5.15,2.68,9.38,2.68,1.89,0,3.54-.18,4.98-.53,0,.02,0,.04.01.06,2.58,12.26,34.38,15.94,71.04,8.23,10.13-2.13,19.56-4.91,27.86-8.08-.75.16-1.57.24-2.46.24-3.15,0-5.8-1.27-7.95-3.82-2.15-2.55-3.23-5.82-3.23-9.81,0-4.6,1.06-8.22,3.18-10.86,2.12-2.64,4.95-3.96,8.49-3.96,1.63,0,3.08.36,4.35,1.08,1.27.72,2.3,1.71,3.09,2.98v-12.86h7.15v31.45c14.29-7.25,22.68-15.54,21.21-22.54ZM328.24,31.36c-.45-.05-.84-.08-1.19-.1-.35-.02-.63-.02-.84-.02-2.84,0-4.74.92-5.71,2.77-.54,1.04-.82,2.64-.82,4.8v12.88h-7.1v-26.96h6.73v4.7c1.09-1.8,2.04-3.03,2.84-3.68,1.32-1.1,3.03-1.66,5.14-1.66.13,0,.24,0,.33.01.09,0,.29.02.61.04v7.22ZM339.61,51.69h-7.15v-26.96h7.15v26.96ZM339.61,21.52h-7.15v-6.5h7.15v6.5Z"/>
        <path class="cls-1" d="M114.79,24.09c-2.11,0-3.82.55-5.14,1.66-.81.66-1.76,1.89-2.84,3.68v-4.7h-6.73v26.96h7.1v-12.88c0-2.16.27-3.76.82-4.8.97-1.85,2.88-2.77,5.71-2.77.21,0,.49,0,.84.02.35.02.74.05,1.19.1v-7.22c-.31-.02-.52-.03-.61-.04s-.2-.01-.33-.01Z"/>
        <path class="cls-1" d="M141,29.26c-1.17-1.81-2.65-3.14-4.45-3.98-1.8-.84-3.82-1.26-6.06-1.26-3.78,0-6.85,1.24-9.21,3.73-2.37,2.49-3.55,6.07-3.55,10.73,0,4.98,1.31,8.57,3.93,10.78,2.62,2.21,5.65,3.31,9.08,3.31,4.15,0,7.39-1.31,9.69-3.93,1.48-1.65,2.32-3.27,2.5-4.87h-7.2c-.38.79-.82,1.41-1.31,1.85-.91.82-2.09,1.24-3.54,1.24-1.37,0-2.54-.34-3.51-1.01-1.6-1.09-2.45-2.98-2.55-5.69h18.45c.03-2.32-.04-4.11-.22-5.34-.31-2.11-1-3.97-2.05-5.56ZM125,35.51c.23-1.75.8-3.13,1.69-4.15.9-1.02,2.16-1.53,3.8-1.53,1.5,0,2.76.48,3.77,1.45,1.01.96,1.58,2.38,1.69,4.24h-10.96Z"/>
        <path class="cls-1" d="M169.8,26.28c-1.77-1.46-4.05-2.19-6.84-2.19-2.23,0-4.06.54-5.51,1.63-.81.61-1.67,1.61-2.57,2.99v-3.93h-6.8v26.91h7.02v-14.59c0-1.67.23-3.03.69-4.11.89-2.03,2.53-3.04,4.92-3.04,1.95,0,3.26.69,3.96,2.08.38.76.57,1.85.57,3.26v16.4h7.22v-18.15c0-3.38-.89-5.8-2.66-7.26Z"/>
        <path class="cls-1" d="M186.92,17.46h-6.97v7.52h-3.76v5.02h3.76v16.59c0,1.68.4,2.93,1.19,3.73,1.22,1.27,3.5,1.85,6.83,1.73l3.34-.12v-5.27c-.23.02-.47.03-.7.04-.24,0-.47.01-.68.01-1.43,0-2.29-.14-2.57-.41-.28-.27-.42-.96-.42-2.06v-14.24h4.38v-5.02h-4.38v-7.52Z"/>
        <path class="cls-1" d="M216.97,29.26c-1.17-1.81-2.65-3.14-4.45-3.98-1.8-.84-3.82-1.26-6.06-1.26-3.78,0-6.85,1.24-9.21,3.73-2.37,2.49-3.55,6.07-3.55,10.73,0,4.98,1.31,8.57,3.93,10.78,2.62,2.21,5.65,3.31,9.08,3.31,4.15,0,7.39-1.31,9.69-3.93,1.48-1.65,2.32-3.27,2.5-4.87h-7.2c-.38.79-.82,1.41-1.31,1.85-.91.82-2.09,1.24-3.54,1.24-1.37,0-2.54-.34-3.51-1.01-1.6-1.09-2.45-2.98-2.55-5.69h18.45c.03-2.32-.04-4.11-.22-5.34-.31-2.11-1-3.97-2.05-5.56ZM200.97,35.51c.23-1.75.8-3.13,1.69-4.15.9-1.02,2.16-1.53,3.8-1.53,1.5,0,2.76.48,3.77,1.45,1.01.96,1.58,2.38,1.69,4.24h-10.96Z"/>
        <path class="cls-1" d="M238.63,24.09c-2.11,0-3.82.55-5.14,1.66-.81.66-1.76,1.89-2.84,3.68v-4.7h-6.73v26.96h7.1v-12.88c0-2.16.27-3.76.82-4.8.97-1.85,2.88-2.77,5.71-2.77.21,0,.49,0,.84.02.35.02.74.05,1.19.1v-7.22c-.31-.02-.52-.03-.61-.04-.09,0-.2-.01-.33-.01Z"/>
      </g>
      <g>
        <path class="cls-1" d="M66.68,41.69c-3.73,0-6.76-3.03-6.76-6.76v-8.88h-8.88c-3.73,0-6.76-3.03-6.76-6.76s3.03-6.76,6.76-6.76h.38L40.69,0,0,47.54h15.7v20.79h49.98v-20.79h15.7l-8.51-9.94c-1.04,2.4-3.43,4.08-6.2,4.08ZM40.13,32.15c4.47,0,8.1,3.63,8.1,8.1s-3.63,8.1-8.1,8.1-8.1-3.63-8.1-8.1,3.63-8.1,8.1-8.1ZM55.39,64.61h-30.5c0-8.42,6.83-15.25,15.25-15.25s15.25,6.83,15.25,15.25h0Z"/>
        <path class="cls-1" d="M82.31,15.64h-11.98V3.66c0-2.02-1.64-3.66-3.66-3.66s-3.66,1.64-3.66,3.66v11.98h-11.98c-2.02,0-3.66,1.64-3.66,3.66s1.64,3.66,3.66,3.66h11.98v11.98c0,2.02,1.64,3.66,3.66,3.66s3.66-1.64,3.66-3.66v-11.98h11.98c2.02,0,3.66-1.64,3.66-3.66s-1.64-3.66-3.66-3.66Z"/>
      </g>
    </g>
  </g>
</svg>