<?xml version="1.0" encoding="UTF-8"?>
<svg id="Layer_2" data-name="Layer 2" xmlns="http://www.w3.org/2000/svg" viewBox="0 0 185.78 27.48">
  <defs>
    <style>
      .cls-1 {
        fill: #95c941;
        stroke-width: 0px;
      }
    </style>
  </defs>
  <g id="Layer_1-2" data-name="Layer 1">
    <g>
      <path class="cls-1" d="M0,8.63v-2.89h2.17V1.41h4.02v4.33h2.52v2.89h-2.52v8.21c0,.64.08,1.03.24,1.19.16.16.66.24,1.48.24.12,0,.25,0,.39,0,.14,0,.27-.01.41-.02v3.03l-1.92.07c-1.92.07-3.23-.27-3.93-1-.46-.47-.68-1.18-.68-2.15v-9.56H0Z"/>
      <path class="cls-1" d="M21.43,5.91c1.08.49,1.98,1.25,2.68,2.3.64.92,1.05,1.99,1.24,3.21.11.71.15,1.74.13,3.08h-11.31c.06,1.56.6,2.65,1.62,3.28.62.39,1.37.58,2.24.58.92,0,1.68-.24,2.25-.71.32-.26.59-.61.84-1.07h4.15c-.11.92-.61,1.86-1.51,2.81-1.39,1.51-3.34,2.27-5.84,2.27-2.07,0-3.89-.64-5.47-1.91-1.58-1.27-2.37-3.35-2.37-6.22,0-2.69.71-4.75,2.14-6.19,1.43-1.43,3.28-2.15,5.55-2.15,1.35,0,2.57.24,3.65.73ZM15.36,9.42c-.57.59-.93,1.39-1.08,2.4h6.99c-.07-1.08-.43-1.9-1.08-2.45-.65-.56-1.45-.84-2.41-.84-1.04,0-1.85.3-2.42.89Z"/>
      <path class="cls-1" d="M36.83,11.17c-.08-.58-.27-1.1-.59-1.57-.46-.63-1.17-.94-2.13-.94-1.37,0-2.31.68-2.81,2.04-.27.72-.4,1.68-.4,2.87s.13,2.05.4,2.74c.49,1.29,1.4,1.94,2.74,1.94.95,0,1.63-.26,2.03-.77s.64-1.18.73-1.99h4.15c-.1,1.23-.54,2.4-1.34,3.5-1.27,1.78-3.16,2.66-5.66,2.66s-4.34-.74-5.52-2.22c-1.18-1.48-1.77-3.4-1.77-5.76,0-2.66.65-4.74,1.95-6.22,1.3-1.48,3.1-2.22,5.39-2.22,1.95,0,3.54.44,4.78,1.31s1.98,2.42,2.2,4.63h-4.16Z"/>
      <path class="cls-1" d="M54.92,5.68c.78.33,1.42.84,1.92,1.53.43.58.69,1.18.78,1.79.09.61.14,1.61.14,3v9.13h-4.15v-9.46c0-.84-.14-1.51-.42-2.03-.37-.72-1.07-1.08-2.09-1.08s-1.87.36-2.43,1.08c-.55.72-.83,1.74-.83,3.07v8.41h-4.06V.2h4.06v7.41c.59-.9,1.26-1.53,2.04-1.89.77-.36,1.58-.53,2.43-.53.95,0,1.82.17,2.6.5Z"/>
      <path class="cls-1" d="M74.11,6.49c1.02.84,1.53,2.23,1.53,4.18v10.46h-4.16v-9.44c0-.82-.11-1.44-.33-1.88-.4-.8-1.15-1.2-2.26-1.2-1.37,0-2.31.58-2.81,1.75-.26.62-.4,1.41-.4,2.36v8.41h-4.06V5.63h3.93v2.27c.52-.8,1.01-1.37,1.48-1.72.83-.63,1.89-.94,3.16-.94,1.6,0,2.91.42,3.92,1.26Z"/>
      <path class="cls-1" d="M92.35,19.23c-1.31,1.62-3.3,2.43-5.97,2.43s-4.66-.81-5.97-2.43-1.97-3.57-1.97-5.84.66-4.18,1.97-5.82,3.3-2.46,5.97-2.46,4.66.82,5.97,2.46,1.97,3.58,1.97,5.82-.66,4.23-1.97,5.84ZM89.11,16.98c.64-.84.95-2.04.95-3.6s-.32-2.75-.95-3.59c-.64-.84-1.55-1.26-2.73-1.26s-2.1.42-2.74,1.26c-.64.84-.96,2.04-.96,3.59s.32,2.76.96,3.6,1.55,1.27,2.74,1.27,2.1-.42,2.73-1.27Z"/>
      <path class="cls-1" d="M101.37,21.13h-4.06V.13h4.06v21Z"/>
      <path class="cls-1" d="M118.28,19.23c-1.31,1.62-3.3,2.43-5.97,2.43s-4.66-.81-5.97-2.43-1.97-3.57-1.97-5.84.66-4.18,1.97-5.82,3.3-2.46,5.97-2.46,4.66.82,5.97,2.46,1.97,3.58,1.97,5.82-.66,4.23-1.97,5.84ZM115.03,16.98c.64-.84.95-2.04.95-3.6s-.32-2.75-.95-3.59c-.64-.84-1.55-1.26-2.73-1.26s-2.1.42-2.74,1.26c-.64.84-.96,2.04-.96,3.59s.32,2.76.96,3.6,1.55,1.27,2.74,1.27,2.1-.42,2.73-1.27Z"/>
      <path class="cls-1" d="M130.84,5.58c.99.41,1.78,1.16,2.39,2.25v-2.24h3.96v14.73c0,2-.34,3.51-1.01,4.53-1.16,1.75-3.38,2.62-6.67,2.62-1.99,0-3.6-.39-4.86-1.17-1.25-.78-1.95-1.94-2.08-3.49h4.42c.11.47.3.82.56,1.03.44.37,1.17.56,2.21.56,1.46,0,2.44-.49,2.93-1.47.32-.63.48-1.68.48-3.16v-1c-.39.66-.81,1.16-1.25,1.5-.81.62-1.86.93-3.15.93-1.99,0-3.59-.7-4.78-2.1s-1.79-3.3-1.79-5.69.57-4.25,1.72-5.82c1.15-1.57,2.77-2.36,4.88-2.36.78,0,1.46.12,2.03.36ZM132.22,16.72c.65-.72.98-1.86.98-3.43,0-1.47-.31-2.59-.93-3.36s-1.45-1.15-2.49-1.15c-1.42,0-2.4.67-2.94,2.01-.28.71-.43,1.59-.43,2.64,0,.9.15,1.7.45,2.41.55,1.31,1.53,1.97,2.95,1.97.95,0,1.74-.36,2.4-1.08Z"/>
      <path class="cls-1" d="M145.15,3.75h-4.12V0h4.12v3.75ZM141.03,5.6h4.12v15.53h-4.12V5.6Z"/>
      <path class="cls-1" d="M159.2,5.91c1.08.49,1.98,1.25,2.68,2.3.64.92,1.05,1.99,1.24,3.21.11.71.15,1.74.13,3.08h-11.31c.06,1.56.6,2.65,1.62,3.28.62.39,1.37.58,2.24.58.92,0,1.68-.24,2.25-.71.32-.26.59-.61.84-1.07h4.14c-.11.92-.61,1.86-1.5,2.81-1.39,1.51-3.34,2.27-5.84,2.27-2.07,0-3.89-.64-5.47-1.91-1.58-1.27-2.37-3.35-2.37-6.22,0-2.69.71-4.75,2.14-6.19,1.43-1.43,3.28-2.15,5.55-2.15,1.35,0,2.57.24,3.65.73ZM153.13,9.42c-.57.59-.93,1.39-1.08,2.4h6.99c-.07-1.08-.43-1.9-1.08-2.45s-1.45-.84-2.41-.84c-1.04,0-1.85.3-2.42.89Z"/>
      <path class="cls-1" d="M168.46,16.17c.09.72.27,1.23.56,1.54.51.54,1.44.81,2.81.81.8,0,1.44-.12,1.91-.36s.71-.59.71-1.07-.19-.8-.57-1.04c-.38-.24-1.8-.65-4.25-1.23-1.76-.44-3.01-.98-3.73-1.64-.72-.65-1.08-1.58-1.08-2.79,0-1.43.56-2.67,1.69-3.7,1.13-1.03,2.71-1.55,4.76-1.55s3.52.39,4.75,1.16c1.22.77,1.92,2.11,2.11,4.01h-4.06c-.06-.52-.21-.94-.44-1.24-.45-.55-1.21-.83-2.29-.83-.89,0-1.52.14-1.89.41-.38.28-.56.6-.56.97,0,.46.2.8.6,1.01.4.22,1.81.59,4.24,1.13,1.62.38,2.83.95,3.64,1.72.8.78,1.2,1.75,1.2,2.92,0,1.54-.57,2.79-1.72,3.77-1.15.97-2.92,1.46-5.32,1.46s-4.25-.52-5.42-1.55c-1.17-1.03-1.75-2.34-1.75-3.94h4.12Z"/>
      <path class="cls-1" d="M181.46,16.87h4.32v4.26h-4.32v-4.26Z"/>
    </g>
  </g>
</svg>