<?xml version="1.0" encoding="UTF-8"?>
<svg id="Layer_2" xmlns="http://www.w3.org/2000/svg" viewBox="0 0 37.8 57.69">
  <defs>
    <style>
      .cls-1 {
        fill: #4d57a4;
      }
    </style>
  </defs>
  <g id="Layer_1-2" data-name="Layer_1">
    <path class="cls-1" d="M34.56,57.69c-.9,0-1.77-.34-2.4-.97l-12.56-12.76c-.39-.39-1.03-.39-1.41,0l-12.55,12.76c-.95.96-2.45,1.24-3.74.71-1.17-.48-1.9-1.52-1.9-2.71V2.97C0,1.33,1.45,0,3.23,0h31.33c1.78,0,3.23,1.33,3.23,2.97v51.74c0,1.19-.73,2.23-1.9,2.71-.43.18-.89.26-1.34.26ZM3.98,4.97v45.34c0,.89,1.08,1.33,1.7.7l10.82-11c.61-.62,1.48-.97,2.4-.97s1.8.36,2.4.97l10.82,11c.62.63,1.7.19,1.7-.7V4.97c0-.55-.44-.99-.99-.99H4.97c-.55,0-.99.44-.99.99ZM34.56,3.98h0,0Z"/>
  </g>
</svg>