<?xml version="1.0" encoding="UTF-8"?>
<svg id="Layer_2" xmlns="http://www.w3.org/2000/svg" viewBox="0 0 102.99 102.99">
  <defs>
    <style>
      .cls-1 {
        fill: #4d56a4;
      }

      .cls-2 {
        fill: #94c93d;
      }

      .cls-3 {
        fill: #fff;
      }
    </style>
  </defs>
  <g id="Layer_1-2" data-name="Layer_1">
    <rect class="cls-1" width="102.99" height="102.99" rx="8.06" ry="8.06"/>
    <g>
      <path class="cls-3" d="M77.53,59.76c-4.09,0-7.42-3.33-7.42-7.42v-9.76h-9.76c-4.09,0-7.42-3.33-7.42-7.42s3.33-7.42,7.42-7.42h.42l-11.79-13.78L4.26,66.19h17.25v22.85h54.92v-22.85h17.25l-9.35-10.92c-1.14,2.64-3.77,4.49-6.81,4.49ZM48.36,49.28c4.91,0,8.9,3.98,8.9,8.9s-3.98,8.9-8.9,8.9-8.9-3.98-8.9-8.9,3.98-8.9,8.9-8.9ZM65.13,84.95H31.61c0-9.25,7.5-16.76,16.76-16.76s16.76,7.5,16.76,16.76h0Z"/>
      <path class="cls-2" d="M94.71,31.14h-13.16v-13.16c0-2.22-1.8-4.02-4.02-4.02s-4.02,1.8-4.02,4.02v13.16h-13.16c-2.22,0-4.02,1.8-4.02,4.02s1.8,4.02,4.02,4.02h13.16v13.16c0,2.22,1.8,4.02,4.02,4.02s4.02-1.8,4.02-4.02v-13.16h13.16c2.22,0,4.02-1.8,4.02-4.02s-1.8-4.02-4.02-4.02Z"/>
    </g>
  </g>
</svg>