<?xml version="1.0" encoding="UTF-8"?>
<svg id="Layer_2" xmlns="http://www.w3.org/2000/svg" viewBox="0 0 102.99 102.99">
  <defs>
    <style>
      .cls-1 {
        fill: #4d56a4;
      }

      .cls-2 {
        fill: #94c93d;
      }

      .cls-3 {
        fill: #fff;
      }
    </style>
  </defs>
  <g id="Layer_1-2" data-name="Layer_1">
    <rect class="cls-1" width="102.99" height="102.99" rx="8.06" ry="8.06"/>
    <g>
      <path class="cls-3" d="M20.84,58.52h-11.83c0-8.94,7.25-16.19,16.19-16.19h0c4.26,0,8.13,1.65,11.02,4.34-6.53,1.81-12.02,6.13-15.38,11.85ZM30.37,25.81c-1.44-1.09-3.23-1.75-5.18-1.75-4.75,0-8.6,3.85-8.6,8.6s3.85,8.6,8.6,8.6c2.07,0,3.98-.74,5.46-1.96-1.17-2.07-1.84-4.46-1.84-7,0-2.33.57-4.54,1.56-6.48Z"/>
      <path class="cls-2" d="M43.12,46.98c2.51,0,4.93.38,7.2,1.08,1.4.93,2.92,1.7,4.54,2.24-11.88,2.13-21.68,10.32-26.11,21.24h-10.2c0-13.56,11-24.56,24.56-24.56h0ZM30.06,32.29c0,7.2,5.84,13.04,13.04,13.04,1.22,0,2.39-.18,3.51-.49-3.08-3.43-4.96-7.95-4.96-12.92,0-4.68,1.67-8.97,4.44-12.32-.96-.22-1.95-.36-2.98-.36-7.2,0-13.04,5.84-13.04,13.04Z"/>
      <path class="cls-3" d="M93.98,84.56h0s-65.87,0-65.87,0h0c0-18.19,14.75-32.94,32.94-32.94h0c18.19,0,32.94,14.75,32.94,32.94ZM78.5,31.93c0-9.66-7.83-17.49-17.49-17.49s-17.49,7.83-17.49,17.49,7.83,17.49,17.49,17.49,17.49-7.83,17.49-17.49Z"/>
    </g>
  </g>
</svg>